# Created by DisUnity v0.3.4
v 1.5677225E-8 0.12046781 -0.16985232
v 1.3322807E-7 0.12046781 0.72656405
v -0.40335247 0.12046781 0.6503073
v -0.4779074 0.12046781 0.08792001
v -0.30495062 0.12046781 -0.16985226
v -0.22031522 0.103614844 -0.24348705
v -0.24576087 0.07875476 -0.25156656
v -0.24576071 0.23035498 -0.71814317
v -0.22031501 0.25521538 -0.71006614
v 7.4287496E-9 0.09485764 -0.21653531
v -0.028008496 0.06999725 -0.22461359
v -0.028008245 0.22996978 -0.7169608
v -7.313446E-8 0.25483018 -0.708885
v -0.40335247 -0.25521588 0.6503073
v -0.4779074 -0.25521588 0.08792001
v -0.4779074 0.12046781 0.08792001
v -0.40335247 0.12046781 0.6503073
v -0.4779074 0.12046781 0.08792001
v -0.30495077 -0.25521588 -0.3357393
v -0.30495062 0.12046781 -0.16985226
v -0.4779074 0.12046781 0.08792001
v -0.30495077 -0.25521588 -0.3357393
v -6.076111E-9 -0.25521588 -0.33573934
v 1.5677225E-8 0.12046781 -0.16985232
v -0.30495062 0.12046781 -0.16985226
v 1.3322807E-7 -0.25521588 0.72656405
v -0.40335247 -0.25521588 0.6503073
v -0.40335247 0.12046781 0.6503073
v 1.3322807E-7 0.12046781 0.72656405
v -0.22031522 0.103614844 -0.24348705
v -0.22031501 0.25521538 -0.71006614
v -0.1948694 0.23035498 -0.71814317
v -0.1948695 0.07875476 -0.2515666
v -0.22031522 0.052828707 -0.25998947
v -0.22031501 0.20442893 -0.7265661
v -0.24576071 0.23035498 -0.71814317
v -0.24576087 0.07875476 -0.25156656
v -0.22031501 0.20442893 -0.7265661
v -0.22031522 0.052828707 -0.25998947
v -0.1948695 0.07875476 -0.2515666
v -0.1948694 0.23035498 -0.71814317
v 8.15011E-9 0.044071194 -0.2330365
v -7.2412924E-8 0.20404373 -0.72538745
v -0.028008245 0.22996978 -0.7169608
v -0.028008496 0.06999725 -0.22461359
v -0.22031526 0.09267826 -0.17143922
v -0.25712395 0.056309734 -0.18325698
v -0.25712374 0.07852783 -0.25163773
v -0.22031528 0.11489666 -0.23981997
v -7.022058E-8 0.082942486 -0.137689
v -0.036393534 0.04515683 -0.14856908
v -0.033618037 0.07095553 -0.22796977
v 1.0812102E-8 0.10874212 -0.21708968
v -0.22031526 0.09267826 -0.17143922
v -0.22031528 0.11489666 -0.23981997
v -0.18350679 0.07877161 -0.25155786
v -0.18350662 0.056553833 -0.18317708
v -0.22031528 0.019118093 -0.19534196
v -0.22031528 0.0413365 -0.26372272
v -0.25712374 0.07852783 -0.25163773
v -0.25712395 0.056309734 -0.18325698
v -0.22031528 0.0413365 -0.26372272
v -0.22031528 0.019118093 -0.19534196
v -0.18350662 0.056553833 -0.18317708
v -0.18350679 0.07877161 -0.25155786
v 2.4720052E-8 0.008088484 -0.16201001
v 1.057525E-7 0.033887807 -0.24141444
v -0.033618037 0.07095553 -0.22796977
v -0.036393534 0.04515683 -0.14856908
v -0.18350679 0.07877161 -0.25155786
v -0.22031528 0.11489666 -0.23981997
v -0.25712374 0.07852783 -0.25163773
v -0.22031528 0.0413365 -0.26372272
v -0.033618037 0.07095553 -0.22796977
v 1.057525E-7 0.033887807 -0.24141444
v 1.0812102E-8 0.10874212 -0.21708968
v 1.5677225E-8 0.12046781 -0.16985232
v 0.47790742 0.12046781 0.08791985
v 0.4033527 0.12046781 0.6503072
v 1.3322807E-7 0.12046781 0.72656405
v 0.30495065 0.12046781 -0.16985236
v 0.22031525 0.103614844 -0.24348712
v 0.22031501 0.25521538 -0.7100662
v 0.24576063 0.23035498 -0.7181432
v 0.2457609 0.07875476 -0.25156665
v 7.4287496E-9 0.09485764 -0.21653531
v -7.313446E-8 0.25483018 -0.708885
v 0.028008105 0.22996978 -0.7169608
v 0.028008506 0.06999725 -0.2246136
v 0.4033527 -0.25521588 0.6503072
v 0.4033527 0.12046781 0.6503072
v 0.47790742 0.12046781 0.08791985
v 0.47790742 -0.25521588 0.08791985
v 0.30495077 -0.25521588 -0.3357394
v 0.47790742 0.12046781 0.08791985
v 0.47790742 0.12046781 0.08791985
v 0.30495065 0.12046781 -0.16985236
v 0.30495077 -0.25521588 -0.3357394
v 0.30495065 0.12046781 -0.16985236
v 1.5677225E-8 0.12046781 -0.16985232
v -6.076111E-9 -0.25521588 -0.33573934
v 1.3322807E-7 -0.25521588 0.72656405
v 1.3322807E-7 0.12046781 0.72656405
v 0.4033527 0.12046781 0.6503072
v 0.4033527 -0.25521588 0.6503072
v 0.22031525 0.103614844 -0.24348712
v 0.19486956 0.07875476 -0.25156665
v 0.1948694 0.23035498 -0.7181432
v 0.22031501 0.25521538 -0.7100662
v 0.22031522 0.052828707 -0.25998953
v 0.2457609 0.07875476 -0.25156665
v 0.24576063 0.23035498 -0.7181432
v 0.22031501 0.20442893 -0.72656614
v 0.22031501 0.20442893 -0.72656614
v 0.1948694 0.23035498 -0.7181432
v 0.19486956 0.07875476 -0.25156665
v 0.22031522 0.052828707 -0.25998953
v 8.15011E-9 0.044071194 -0.2330365
v 0.028008506 0.06999725 -0.2246136
v 0.028008105 0.22996978 -0.7169608
v -7.2412924E-8 0.20404373 -0.72538745
v 0.22031522 0.09267826 -0.17143929
v 0.2203153 0.11489729 -0.23982005
v 0.2571238 0.07852814 -0.25163782
v 0.2571239 0.056309734 -0.18325706
v -7.022058E-8 0.082942486 -0.137689
v 1.0812102E-8 0.10874212 -0.21708968
v 0.03361787 0.07095553 -0.22796978
v 0.036393404 0.04515683 -0.14856909
v 0.22031522 0.09267826 -0.17143929
v 0.18350665 0.056553833 -0.18317714
v 0.18350685 0.07877193 -0.25155792
v 0.2203153 0.11489729 -0.23982005
v 0.22031522 0.019119028 -0.19534202
v 0.2571239 0.056309734 -0.18325706
v 0.2571238 0.07852814 -0.25163782
v 0.22031529 0.041337438 -0.26372278
v 0.22031529 0.041337438 -0.26372278
v 0.18350685 0.07877193 -0.25155792
v 0.18350665 0.056553833 -0.18317714
v 0.22031522 0.019119028 -0.19534202
v 2.4720052E-8 0.008088484 -0.16201001
v 0.036393404 0.04515683 -0.14856909
v 0.03361787 0.07095553 -0.22796978
v 1.057525E-7 0.033887807 -0.24141444
v 0.18350685 0.07877193 -0.25155792
v 0.22031529 0.041337438 -0.26372278
v 0.2571238 0.07852814 -0.25163782
v 0.2203153 0.11489729 -0.23982005
v 1.057525E-7 0.033887807 -0.24141444
v 0.03361787 0.07095553 -0.22796978
v 1.0812102E-8 0.10874212 -0.21708968
v -0.24576071 0.23035498 -0.71814317
v -0.22031501 0.20442893 -0.7265661
v -0.1948694 0.23035498 -0.71814317
v -0.22031501 0.25521538 -0.71006614
v -7.2412924E-8 0.20404373 -0.72538745
v 0.028008105 0.22996978 -0.7169608
v -7.313446E-8 0.25483018 -0.708885
v -0.028008245 0.22996978 -0.7169608
v 0.1948694 0.23035498 -0.7181432
v 0.22031501 0.20442893 -0.72656614
v 0.24576063 0.23035498 -0.7181432
v 0.22031501 0.25521538 -0.7100662
vn -0.0 1.0 0.0
vn -0.0 1.0 0.0
vn -0.0 1.0 0.0
vn -0.0 1.0 0.0
vn -0.0 1.0 0.0
vn -0.71655685 0.6633892 0.21554801
vn -0.71656036 0.6633857 0.21554723
vn -0.71655685 0.6633892 0.21554801
vn -0.71655333 0.66339284 0.2155488
vn -0.6822968 0.69529444 0.22591308
vn -0.6823001 0.69529146 0.22591247
vn -0.6822968 0.69529444 0.22591308
vn -0.6822936 0.6952974 0.22591372
vn -0.991327 0.0 0.13141884
vn -0.99183226 0.0 -0.1275483
vn -0.991327 0.0 0.13141884
vn -0.991327 0.0 0.13141884
vn -0.92582136 0.0 -0.37796155
vn -0.8768891 0.12094015 -0.46523002
vn -0.80635333 0.23890077 -0.5410368
vn -0.80635333 0.23890077 -0.5410368
vn -0.0 0.4039342 -0.914788
vn -0.0 0.40393418 -0.914788
vn -0.0 0.4039342 -0.914788
vn -0.0 0.4039342 -0.914788
vn -0.0 0.0 1.0
vn -0.18576643 0.0 0.98259395
vn -0.18576643 0.0 0.98259395
vn -0.18576643 0.0 0.98259395
vn 0.71655697 0.6633889 0.21554847
vn 0.7165545 0.6633914 0.21554898
vn 0.71655697 0.6633889 0.21554847
vn 0.71655935 0.6633866 0.21554792
vn -0.73101467 -0.6489644 -0.210862
vn -0.73101425 -0.6489648 -0.21086219
vn -0.73101467 -0.6489644 -0.210862
vn -0.731015 -0.648964 -0.21086183
vn 0.7310146 -0.64896464 -0.21086153
vn 0.7310138 -0.64896554 -0.21086171
vn 0.7310146 -0.64896464 -0.21086153
vn 0.7310153 -0.64896375 -0.21086136
vn -0.6974757 -0.6815357 -0.22144258
vn -0.69748545 -0.681527 -0.22143869
vn -0.6974757 -0.6815357 -0.22144258
vn -0.6974659 -0.68154436 -0.22144645
vn -0.7204676 0.65954703 0.2142988
vn -0.72046524 0.65955025 0.21429724
vn -0.7204676 0.65954703 0.2142988
vn -0.7204701 0.659544 0.21430044
vn -0.7470933 0.6358492 0.19377172
vn -0.7338972 0.65313804 0.18656234
vn -0.7470933 0.6358492 0.19377172
vn -0.759897 0.6182264 0.2008793
vn 0.7181297 0.66184974 0.21504553
vn 0.71813315 0.66184527 0.21504791
vn 0.7181297 0.66184974 0.21504553
vn 0.71812624 0.6618542 0.21504314
vn -0.72816986 -0.6518507 -0.21180013
vn -0.7281696 -0.6518509 -0.21180056
vn -0.72816986 -0.6518507 -0.21180013
vn -0.7281702 -0.6518505 -0.21179971
vn 0.7304036 -0.64958674 -0.21106297
vn 0.7304055 -0.6495843 -0.2110643
vn 0.7304036 -0.64958674 -0.21106297
vn 0.73040175 -0.6495892 -0.21106164
vn -0.7480046 -0.62732846 -0.21667495
vn -0.76078314 -0.617243 -0.20054944
vn -0.7480046 -0.62732846 -0.21667495
vn -0.73483336 -0.63708466 -0.23268674
vn 8.827778E-6 0.30902818 -0.9510529
vn 8.827778E-6 0.30902818 -0.9510529
vn 8.827778E-6 0.30902818 -0.9510529
vn 8.7742565E-6 0.30904278 -0.95104814
vn -0.03954898 0.30881095 -0.9503009
vn -0.03954898 0.30881095 -0.9503009
vn -0.03954898 0.30881095 -0.9503009
vn -0.0 1.0 0.0
vn -0.0 1.0 0.0
vn -0.0 1.0 0.0
vn -0.0 1.0 0.0
vn -0.0 1.0 0.0
vn 0.71655726 0.66338897 0.21554783
vn 0.7165542 0.6633919 0.21554844
vn 0.71655726 0.66338897 0.21554783
vn 0.7165602 0.6633859 0.21554713
vn 0.68229693 0.69529444 0.2259129
vn 0.68229365 0.6952975 0.22591352
vn 0.68229693 0.69529444 0.2259129
vn 0.6823002 0.69529134 0.22591224
vn 0.991327 0.0 0.1314185
vn 0.991327 0.0 0.1314185
vn 0.991327 0.0 0.1314185
vn 0.99183226 0.0 -0.12754852
vn 0.8768891 0.12094015 -0.46523014
vn 0.92582124 0.0 -0.3779616
vn 0.8063532 0.2389007 -0.5410368
vn 0.8063532 0.2389007 -0.5410368
vn -0.0 0.40393415 -0.914788
vn -0.0 0.40393415 -0.914788
vn -0.0 0.40393415 -0.914788
vn -0.0 0.40393418 -0.914788
vn -0.0 0.0 1.0
vn 0.18576676 0.0 0.98259383
vn 0.18576676 0.0 0.98259383
vn 0.18576676 0.0 0.98259383
vn -0.71655726 0.6633888 0.21554841
vn -0.71655995 0.66338605 0.21554784
vn -0.71655726 0.6633888 0.21554841
vn -0.7165546 0.66339135 0.21554896
vn 0.7310148 -0.6489643 -0.21086209
vn 0.7310144 -0.64896464 -0.21086225
vn 0.7310148 -0.6489643 -0.21086209
vn 0.73101515 -0.64896387 -0.2108619
vn -0.7310151 -0.64896405 -0.21086131
vn -0.7310155 -0.64896375 -0.21086125
vn -0.7310151 -0.64896405 -0.21086131
vn -0.7310147 -0.6489645 -0.21086144
vn 0.6974757 -0.68153566 -0.22144285
vn 0.697466 -0.6815442 -0.22144665
vn 0.6974757 -0.68153566 -0.22144285
vn 0.69748527 -0.681527 -0.22143897
vn 0.7204689 0.6595442 0.21430328
vn 0.7204725 0.65953946 0.21430576
vn 0.7204689 0.6595442 0.21430328
vn 0.72046536 0.659549 0.21430081
vn 0.7470942 0.635848 0.19377196
vn 0.7598989 0.61822397 0.20088007
vn 0.7470942 0.635848 0.19377196
vn 0.7338972 0.6531382 0.18656208
vn -0.71813154 0.6618468 0.2150485
vn -0.71812695 0.66185284 0.21504538
vn -0.71813154 0.6618468 0.2150485
vn -0.7181362 0.66184074 0.2150517
vn 0.72816324 -0.65185726 -0.21180287
vn 0.72816235 -0.6518578 -0.2118041
vn 0.72816324 -0.65185726 -0.21180287
vn 0.7281642 -0.65185666 -0.21180163
vn -0.7303979 -0.64959204 -0.21106675
vn -0.7303971 -0.64959306 -0.21106622
vn -0.7303979 -0.64959204 -0.21106675
vn -0.7303986 -0.649591 -0.2110673
vn 0.74800724 -0.62732595 -0.21667351
vn 0.73483497 -0.6370828 -0.23268647
vn 0.74800724 -0.62732595 -0.21667351
vn 0.76078665 -0.61723953 -0.20054673
vn -9.067013E-6 0.30904752 -0.95104665
vn -9.067013E-6 0.30904752 -0.95104665
vn -9.067013E-6 0.30904752 -0.95104665
vn -9.1464935E-6 0.3090258 -0.9510537
vn 0.039548993 0.30881107 -0.95030075
vn 0.039548993 0.30881107 -0.95030075
vn 0.039548993 0.30881107 -0.95030075
vn -0.0 0.30898404 -0.9510672
vn -0.0 0.30898404 -0.9510672
vn -0.0 0.30898404 -0.9510672
vn -0.0 0.30899644 -0.95106316
vn 7.756045E-5 0.30903238 -0.9510515
vn 7.756045E-5 0.30903238 -0.9510515
vn 7.756045E-5 0.30903238 -0.9510515
vn -7.7853685E-5 0.3090324 -0.9510515
vn -0.0 0.30898407 -0.9510672
vn -0.0 0.30898407 -0.9510672
vn -0.0 0.30898407 -0.9510672
vn -0.0 0.30899644 -0.95106316
vt 0.95099616 0.4004621
vt 0.99870753 0.4004621
vt 0.9941509 0.35654932
vt 0.96424544 0.35004938
vt 0.95099616 0.36913073
vt 0.94851756 0.45844084
vt 0.94851756 0.46599543
vt 0.9036825 0.46599543
vt 0.9036825 0.45844084
vt 0.94851756 0.45844084
vt 0.94851756 0.46599543
vt 0.9036825 0.46599543
vt 0.9036825 0.45844084
vt 0.9742644 0.4525746
vt 0.9418671 0.4525746
vt 0.9418671 0.40681142
vt 0.9742644 0.40681142
vt 0.9418671 0.40681142
vt 0.9199325 0.4525746
vt 0.9199325 0.40681142
vt 0.9418671 0.40681142
vt 0.9199325 0.4525746
vt 0.90296805 0.4525746
vt 0.90296805 0.40681142
vt 0.9199325 0.40681142
vt 0.9976964 0.4525746
vt 0.9742644 0.4525746
vt 0.9742644 0.40681142
vt 0.9976964 0.40681142
vt 0.94851756 0.45844084
vt 0.9036825 0.45844084
vt 0.9036825 0.46599543
vt 0.94851756 0.46599543
vt 0.94851756 0.47387397
vt 0.9036825 0.47387397
vt 0.9036825 0.46599543
vt 0.94851756 0.46599543
vt 0.9036825 0.47387397
vt 0.94851756 0.47387397
vt 0.94851756 0.46599543
vt 0.9036825 0.46599543
vt 0.94851756 0.47387397
vt 0.9036825 0.47387397
vt 0.9036825 0.46599543
vt 0.94851756 0.46599543
vt 0.96398044 0.4738031
vt 0.9575572 0.4738031
vt 0.9575572 0.45848244
vt 0.96398044 0.45848244
vt 0.9641839 0.4738031
vt 0.9575827 0.4738031
vt 0.9575827 0.45848244
vt 0.9641839 0.45848244
vt 0.96398044 0.4738031
vt 0.96398044 0.45848244
vt 0.95760024 0.45848244
vt 0.95760024 0.4738031
vt 0.95098853 0.4738031
vt 0.95098853 0.45848244
vt 0.9575572 0.45848244
vt 0.9575572 0.4738031
vt 0.95098853 0.45848244
vt 0.95098853 0.4738031
vt 0.95760024 0.4738031
vt 0.95760024 0.45848244
vt 0.95096385 0.4738031
vt 0.95096385 0.45848244
vt 0.9575827 0.45848244
vt 0.9575827 0.4738031
vt 0.8798616 0.4766906
vt 0.8798616 0.46253866
vt 0.8727268 0.46253866
vt 0.8727268 0.4766906
vt 0.8727268 0.46253866
vt 0.8727268 0.4766906
vt 0.8798616 0.46253866
vt 0.95099616 0.4004621
vt 0.96424544 0.35004938
vt 0.9941509 0.35654932
vt 0.99870753 0.4004621
vt 0.95099616 0.36913073
vt 0.94851756 0.45844084
vt 0.9036825 0.45844084
vt 0.9036825 0.46599543
vt 0.94851756 0.46599543
vt 0.94851756 0.45844084
vt 0.9036825 0.45844084
vt 0.9036825 0.46599543
vt 0.94851756 0.46599543
vt 0.9742644 0.4525746
vt 0.9742644 0.40681142
vt 0.9418671 0.40681142
vt 0.9418671 0.4525746
vt 0.9199325 0.4525746
vt 0.9418671 0.40681142
vt 0.9418671 0.40681142
vt 0.9199325 0.40681142
vt 0.9199325 0.4525746
vt 0.9199325 0.40681142
vt 0.90296805 0.40681142
vt 0.90296805 0.4525746
vt 0.9976964 0.4525746
vt 0.9976964 0.40681142
vt 0.9742644 0.40681142
vt 0.9742644 0.4525746
vt 0.94851756 0.45844084
vt 0.94851756 0.46599543
vt 0.9036825 0.46599543
vt 0.9036825 0.45844084
vt 0.94851756 0.47387397
vt 0.94851756 0.46599543
vt 0.9036825 0.46599543
vt 0.9036825 0.47387397
vt 0.9036825 0.47387397
vt 0.9036825 0.46599543
vt 0.94851756 0.46599543
vt 0.94851756 0.47387397
vt 0.94851756 0.47387397
vt 0.94851756 0.46599543
vt 0.9036825 0.46599543
vt 0.9036825 0.47387397
vt 0.96398044 0.4738031
vt 0.96398044 0.45848244
vt 0.9575572 0.45848244
vt 0.9575572 0.4738031
vt 0.9641839 0.4738031
vt 0.9641839 0.45848244
vt 0.9575827 0.45848244
vt 0.9575827 0.4738031
vt 0.96398044 0.4738031
vt 0.95760024 0.4738031
vt 0.95760024 0.45848244
vt 0.96398044 0.45848244
vt 0.95098853 0.4738031
vt 0.9575572 0.4738031
vt 0.9575572 0.45848244
vt 0.95098853 0.45848244
vt 0.95098853 0.45848244
vt 0.95760024 0.45848244
vt 0.95760024 0.4738031
vt 0.95098853 0.4738031
vt 0.95096385 0.4738031
vt 0.9575827 0.4738031
vt 0.9575827 0.45848244
vt 0.95096385 0.45848244
vt 0.8798616 0.4766906
vt 0.8727268 0.4766906
vt 0.8727268 0.46253866
vt 0.8798616 0.46253866
vt 0.8727268 0.4766906
vt 0.8727268 0.46253866
vt 0.8798616 0.46253866
vt 0.94309783 0.34709942
vt 0.94309783 0.36191183
vt 0.950504 0.36191183
vt 0.950504 0.34709942
vt 0.94309783 0.36191183
vt 0.950504 0.36191183
vt 0.950504 0.34709942
vt 0.94309783 0.34709942
vt 0.94309783 0.34709942
vt 0.94309783 0.36191183
vt 0.950504 0.36191183
vt 0.950504 0.34709942

g artillery3
s 1
usemtl artillery3
f 3/3/3 2/2/2 1/1/1 
f 1/1/1 4/4/4 3/3/3 
f 4/4/4 1/1/1 5/5/5 
f 8/8/8 7/7/7 6/6/6 
f 6/6/6 9/9/9 8/8/8 
f 12/12/12 11/11/11 10/10/10 
f 10/10/10 13/13/13 12/12/12 
f 16/16/16 15/15/15 14/14/14 
f 14/14/14 17/17/17 16/16/16 
f 19/19/19 15/15/15 18/18/18 
f 21/21/21 20/20/20 19/19/19 
f 24/24/24 23/23/23 22/22/22 
f 22/22/22 25/25/25 24/24/24 
f 28/28/28 27/27/27 26/26/26 
f 26/26/26 29/29/29 28/28/28 
f 32/32/32 31/31/31 30/30/30 
f 30/30/30 33/33/33 32/32/32 
f 36/36/36 35/35/35 34/34/34 
f 34/34/34 37/37/37 36/36/36 
f 40/40/40 39/39/39 38/38/38 
f 38/38/38 41/41/41 40/40/40 
f 44/44/44 43/43/43 42/42/42 
f 42/42/42 45/45/45 44/44/44 
f 48/48/48 47/47/47 46/46/46 
f 46/46/46 49/49/49 48/48/48 
f 52/52/52 51/51/51 50/50/50 
f 50/50/50 53/53/53 52/52/52 
f 56/56/56 55/55/55 54/54/54 
f 54/54/54 57/57/57 56/56/56 
f 60/60/60 59/59/59 58/58/58 
f 58/58/58 61/61/61 60/60/60 
f 64/64/64 63/63/63 62/62/62 
f 62/62/62 65/65/65 64/64/64 
f 68/68/68 67/67/67 66/66/66 
f 66/66/66 69/69/69 68/68/68 
f 72/72/72 71/71/71 70/70/70 
f 70/70/70 73/73/73 72/72/72 
f 76/76/76 75/75/75 74/74/74 
f 79/79/79 78/78/78 77/77/77 
f 77/77/77 80/80/80 79/79/79 
f 78/78/78 81/81/81 77/77/77 
f 84/84/84 83/83/83 82/82/82 
f 82/82/82 85/85/85 84/84/84 
f 88/88/88 87/87/87 86/86/86 
f 86/86/86 89/89/89 88/88/88 
f 92/92/92 91/91/91 90/90/90 
f 90/90/90 93/93/93 92/92/92 
f 95/95/95 93/93/93 94/94/94 
f 94/94/94 97/97/97 96/96/96 
f 100/100/100 99/99/99 98/98/98 
f 98/98/98 101/101/101 100/100/100 
f 104/104/104 103/103/103 102/102/102 
f 102/102/102 105/105/105 104/104/104 
f 108/108/108 107/107/107 106/106/106 
f 106/106/106 109/109/109 108/108/108 
f 112/112/112 111/111/111 110/110/110 
f 110/110/110 113/113/113 112/112/112 
f 116/116/116 115/115/115 114/114/114 
f 114/114/114 117/117/117 116/116/116 
f 120/120/120 119/119/119 118/118/118 
f 118/118/118 121/121/121 120/120/120 
f 124/124/124 123/123/123 122/122/122 
f 122/122/122 125/125/125 124/124/124 
f 128/128/128 127/127/127 126/126/126 
f 126/126/126 129/129/129 128/128/128 
f 132/132/132 131/131/131 130/130/130 
f 130/130/130 133/133/133 132/132/132 
f 136/136/136 135/135/135 134/134/134 
f 134/134/134 137/137/137 136/136/136 
f 140/140/140 139/139/139 138/138/138 
f 138/138/138 141/141/141 140/140/140 
f 144/144/144 143/143/143 142/142/142 
f 142/142/142 145/145/145 144/144/144 
f 148/148/148 147/147/147 146/146/146 
f 146/146/146 149/149/149 148/148/148 
f 152/152/152 151/151/151 150/150/150 
f 155/155/155 154/154/154 153/153/153 
f 153/153/153 156/156/156 155/155/155 
f 159/159/159 158/158/158 157/157/157 
f 157/157/157 160/160/160 159/159/159 
f 163/163/163 162/162/162 161/161/161 
f 161/161/161 164/164/164 163/163/163 

