# Created by DisUnity v0.3.4
v -0.5399258 1.8855268 -0.14005512
v -0.70657617 1.8917409 -0.17434315
v -0.82769436 0.17648683 -0.039920565
v -0.5522732 0.16976629 -0.029266875
v -0.6126553 2.0314837 -0.16496359
v -0.674783 1.9832742 -0.17830282
v -0.5237393 2.0578988 -0.14450157
v -0.29925194 2.0076914 -0.0786141
v -0.15494654 1.8918852 -0.024723088
v -0.025838865 0.1685646 0.25395763
v -1.4417752 0.013178476 -0.1395406
v -1.4133877 0.12363912 -0.24694417
v -1.3017422 0.121769734 -0.2192922
v -1.3301114 0.011453284 -0.11190845
v -1.3884792 0.012356183 -0.3550878
v -1.2768215 0.010629274 -0.3274648
v -1.305148 -0.099682 -0.21929216
v -1.4167935 -0.09811131 -0.24694414
v -1.4417752 0.013178476 -0.1395406
v -1.5367398 0.014647875 -0.27735797
v -1.3301114 0.011453284 -0.11190845
v -1.5367398 0.014647875 -0.27735797
v -1.3884792 0.012356183 -0.3550878
v -1.3884792 0.012356183 -0.3550878
v -1.5367398 0.014647875 -0.27735797
v -1.2419277 0.010613846 -0.4892278
v -0.48757592 -0.0010488036 -0.33636677
v -0.5252774 0.16587469 -0.2662374
v -1.2527431 0.17417449 -0.43464407
v -0.55931056 0.2490395 -0.1231649
v -1.2861416 0.2741621 -0.2927694
v -0.3015591 0.18532392 -0.21854301
v -0.25549585 -0.0046227616 -0.43445942
v 0.13616675 -0.010677288 -0.3217336
v 0.09117164 0.1616432 -0.09827627
v 1.4849155 -0.03154446 0.4571391
v 1.48223 -0.014086497 0.46898907
v 1.4789829 -0.006543694 0.48272657
v 0.060135256 0.2354284 0.032039877
v -0.60791284 0.25017068 0.07338967
v 0.006778322 0.23039874 0.23341927
v -0.64764065 0.15407982 0.22751413
v -0.026449217 0.14171164 0.37580058
v -1.3660122 0.17421737 0.023302704
v -1.2861416 0.2741621 -0.2927694
v -1.3294582 0.27417588 -0.1178228
v 1.4652989 -0.0017182834 0.53835094
v 1.4574375 -0.014065881 0.56930035
v 1.5181859 -0.032045726 0.531161
v -0.04334375 -0.007901544 0.434109
v -0.6648281 0.0016909182 0.28698987
v -1.381918 0.012793942 0.076824464
v 1.4547031 -0.03106212 0.5790874
v 1.5181859 -0.032045726 0.531161
v -1.3660122 0.17421737 0.023302704
v -1.3294582 0.27417588 -0.1178228
v -1.381918 0.012793942 0.076824464
v -1.3660122 0.17421737 0.023302704
v 1.4782078 -0.056323778 0.48272657
v 1.4643834 -0.060750917 0.53835094
v -6.1303534E-4 -0.24763352 0.23341936
v -0.031063475 -0.15799709 0.37580064
v -0.6523526 -0.15112549 0.22751419
v -0.61562157 -0.24844031 0.073389746
v 0.052566897 -0.25430942 0.03203996
v -0.56698877 -0.24877334 -0.12316482
v -1.371011 -0.14905867 0.023302758
v -1.2942593 -0.2514049 -0.2927693
v -1.3375577 -0.2501123 -0.11782424
v 1.4569066 -0.048150964 0.56930035
v -0.30741236 -0.19307095 -0.21854295
v 0.08586158 -0.18155247 -0.09827775
v 1.4816929 -0.04889771 0.46898907
v -0.04334375 -0.007901544 0.434109
v -0.6648281 0.0016909182 0.28698987
v -1.381918 0.012793942 0.076824464
v 1.4547031 -0.03106212 0.5790874
v 1.5181859 -0.032045726 0.531161
v 1.4849155 -0.03154446 0.4571391
v 1.5181859 -0.032045726 0.531161
v -0.48757592 -0.0010488036 -0.33636677
v -0.5304226 -0.16671063 -0.26623583
v -1.2419277 0.010613846 -0.4892278
v -1.2577969 -0.15250736 -0.434644
v -1.2942593 -0.2514049 -0.2927693
v -1.3294582 0.27417588 -0.1178228
v -1.3660122 0.17421737 0.023302704
v -1.381918 0.012793942 0.076824464
v -1.2861416 0.2741621 -0.2927694
v -1.2419277 0.010613846 -0.4892278
v -1.2527431 0.17417449 -0.43464407
v 1.5181859 -0.032045726 0.531161
v 1.5181859 -0.032045726 0.531161
v -1.3375577 -0.2501123 -0.11782424
v -1.2419277 0.010613846 -0.4892278
v -1.381918 0.012793942 0.076824464
v -1.371011 -0.14905867 0.023302758
v -1.2942593 -0.2514049 -0.2927693
v -1.2577969 -0.15250736 -0.434644
v -1.3375577 -0.2501123 -0.11782424
v -1.371011 -0.14905867 0.023302758
v -1.371011 -0.14905867 0.023302758
v -1.381918 0.012793942 0.076824464
v 1.5181859 -0.032045726 0.531161
v -0.8329922 -0.1679689 -0.03992051
v -0.76496243 -1.8861701 -0.17434253
v -0.59822655 -1.8850958 -0.14005451
v -0.55752224 -0.16977134 -0.02926682
v -0.67542386 -2.028716 -0.16496293
v -0.7359951 -1.978617 -0.17829148
v -0.5873745 -2.0578985 -0.1445009
v -0.3614407 -2.0146298 -0.078613445
v -0.21361963 -1.9033554 -0.02472247
v -0.031307615 -0.18483977 0.2539592
v -1.3327359 0.50861377 -0.43681392
v -1.3402675 0.021711744 -0.25293627
v -1.334103 0.4206785 -0.567005
v -1.3326565 0.5136881 -0.5298376
v -1.3464565 -0.3786918 -0.5790883
v -1.340231 0.023996558 -0.24933673
v -1.3475186 -0.44749707 -0.4378163
v -1.3477383 -0.46177247 -0.53700906
v -1.481625 -0.06562954 0.1855708
v -1.3473538 0.016539577 -0.31062368
v -1.4763211 0.09108695 0.17486827
v -1.4935635 0.012606809 0.23471326
v 1.0977695 0.4014851 0.38856453
v 1.0457859 0.03837149 0.3758006
v 1.2772251 0.012325314 0.41398877
v 1.2833103 0.39846557 0.41542
v 1.209232 0.66705364 0.41609132
v 1.2916234 0.66576284 0.41742343
v 1.3152806 0.70675206 0.44605654
v 1.4770054 -0.013223037 0.48646346
v 1.5367466 0.39416546 0.5011652
v 1.4089085 0.6637407 0.46947572
v 1.0845982 -0.45052007 0.38856617
v 1.270145 -0.45325464 0.41542011
v 1.2759922 -0.06709039 0.4139888
v 1.0438633 -0.08594737 0.3758006
v 1.1877964 -0.7194276 0.41609156
v 1.2701938 -0.72068065 0.41742212
v 1.2925694 -0.7623686 0.44605678
v 1.476456 -0.047742423 0.48646346
v 1.5235935 -0.4567771 0.5011654
v 1.3874607 -0.7222514 0.46947595
v 1.1711277 -0.031252645 -0.16910754
v 0.60945165 -0.017984908 9.730238E-4
v 1.1408542 -0.030783998 0.33560744
v 1.2603366 -0.032632798 -0.14700213
v 1.4483067 -0.035539016 -0.1005437
v 1.4612644 -0.035762176 0.48958692
v 1.3948948 -0.034735654 -0.17232867
v 1.2974765 -0.033230163 -0.19644824
v 1.2635044 -0.032704905 -0.20485431
v 1.3200657 -0.03357866 -0.210526
vn 0.21732685 -0.06743088 -0.973767
vn 0.23864488 -0.10334891 -0.96559185
vn 0.11762593 -0.07781136 -0.99000484
vn 0.26979396 -0.079646714 -0.9596185
vn 0.25197098 -0.08893954 -0.96363914
vn 0.31811354 -0.15098242 -0.935953
vn 0.25416338 -0.048783854 -0.96593016
vn 0.27911794 -0.068154186 -0.95783514
vn 0.3501093 -0.08578198 -0.93277276
vn 0.47091377 -0.10633842 -0.8757467
vn -0.4792683 0.007384604 0.8776374
vn -0.35043374 0.9323635 -0.088850334
vn 0.015649097 0.999876 0.0017492978
vn -0.24015749 0.003690334 0.97072697
vn -0.015033618 2.3509664E-4 -0.999887
vn 0.2400944 -0.0037158376 -0.97074246
vn -0.015208651 -0.9998828 0.0017379593
vn -0.37901947 -0.92111224 -0.08886153
vn -0.4792683 0.007384604 0.8776374
vn -0.9709721 0.014968024 -0.23872377
vn -0.24015749 0.003690334 0.97072697
vn -0.9709721 0.014968024 -0.23872377
vn -0.015033618 2.3509664E-4 -0.999887
vn -0.015033618 2.3509664E-4 -0.999887
vn -0.9709721 0.014968024 -0.23872377
vn 0.21164085 -0.0032978733 -0.97734195
vn 0.019240776 -3.1347884E-4 -0.9998149
vn 0.15003261 0.61002874 -0.7780457
vn 0.17335638 0.7091924 -0.68336934
vn 0.08041511 0.9443955 -0.31882685
vn 0.15551323 0.82432306 -0.5443411
vn 0.092762694 0.79335004 -0.6016568
vn -0.07891748 0.0012325865 -0.9968804
vn 0.37477794 -0.005762619 -0.92709666
vn 0.2814441 0.8009215 -0.5285017
vn 0.67449707 -0.010513725 -0.73820263
vn 0.5852703 0.6655379 -0.46316075
vn 0.36240506 0.91639304 -0.16995953
vn 0.13250099 0.9724754 -0.19166407
vn -0.034363795 0.9705894 0.23827603
vn 0.026540378 0.9603341 0.27758598
vn -0.18825828 0.60618633 0.77272046
vn -0.06795305 0.684413 0.72592086
vn -0.11900039 0.85603577 0.50303245
vn 0.031224016 0.9994831 0.0076524243
vn 0.031224016 0.9994831 0.0076524243
vn 0.25972688 0.9231037 0.28358692
vn 0.28789213 0.69189215 0.6621204
vn 0.97873014 -0.015147112 0.20459181
vn -0.1860165 0.0028807374 0.9825424
vn -0.25583476 0.0039154785 0.9667126
vn -0.25519708 0.37638354 0.8906233
vn 0.15901528 -0.0023432218 0.98727334
vn 0.97873014 -0.015147112 0.20459181
vn -0.11915372 0.82452196 0.5531419
vn -0.11915372 0.82452196 0.5531419
vn -0.24993277 0.32682452 0.91143805
vn -0.24993277 0.32682452 0.91143805
vn 0.3476973 -0.93046343 -0.115517996
vn 0.23120841 -0.9306657 0.28355616
vn -0.0031300145 -0.9607226 0.27749288
vn -0.08909739 -0.68191236 0.725987
vn -0.20690653 -0.6000607 0.7727334
vn -0.06433275 -0.969068 0.2382616
vn 0.12484438 -0.96637183 -0.22480981
vn 0.051182996 -0.9464216 -0.3188517
vn -0.14543682 -0.85184497 0.503198
vn 3.3688062E-4 -0.9999721 0.0074718604
vn 3.3688062E-4 -0.9999721 0.0074718604
vn 0.26641032 -0.7001885 0.6623908
vn 0.06818547 -0.79585636 -0.60163385
vn 0.25716704 -0.793847 -0.5510644
vn 0.5047379 -0.73113143 -0.45900592
vn -0.1860165 0.0028807374 0.9825424
vn -0.25583476 0.0039154785 0.9667126
vn -0.26671886 -0.36838913 0.8905899
vn 0.15901528 -0.0023432218 0.98727334
vn 0.97873014 -0.015147112 0.20459181
vn 0.67449707 -0.010513725 -0.73820263
vn 0.97873014 -0.015147112 0.20459181
vn 0.019240776 -3.1347884E-4 -0.9998149
vn 0.1310848 -0.6144114 -0.77802026
vn 0.21164085 -0.0032978733 -0.97734195
vn 0.15133333 -0.7142424 -0.6833418
vn 0.12993643 -0.82875776 -0.5443134
vn -0.9705983 0.015944535 -0.2401765
vn -0.9706303 0.016052425 -0.24004024
vn -0.9706031 0.01601256 -0.24015236
vn -0.9706373 0.015923165 -0.2400198
vn -0.9707329 0.01578424 -0.23964246
vn -0.9707329 0.01578424 -0.23964246
vn 0.97873014 -0.015147112 0.20459181
vn 0.97873014 -0.015147112 0.20459181
vn -0.9706303 0.013879429 -0.24017556
vn -0.9706463 0.013988831 -0.24010415
vn -0.9706463 0.013988831 -0.24010415
vn -0.970647 0.013986968 -0.24010181
vn -0.97069013 0.013975497 -0.23992786
vn -0.9707826 0.014288506 -0.23953505
vn -0.14461574 -0.82041585 0.5531762
vn -0.14461574 -0.82041585 0.5531762
vn -0.2599113 -0.31891462 0.91144913
vn -0.2599113 -0.31891462 0.91144913
vn 0.97873014 -0.015147112 0.20459181
vn 0.11998975 0.07413688 -0.9900031
vn 0.24174534 0.09592349 -0.96558684
vn 0.2193177 0.06068155 -0.9737646
vn 0.2721288 0.071268134 -0.959618
vn 0.25462282 0.08110996 -0.9636328
vn 0.32263848 0.14107575 -0.93594974
vn 0.25556353 0.04090366 -0.9659266
vn 0.28108597 0.059495468 -0.95783657
vn 0.35259223 0.07491976 -0.9327732
vn 0.47398096 0.091731116 -0.875744
vn -0.9998796 0.01551766 1.8995815E-5
vn -0.9998802 0.015482886 4.248975E-5
vn -0.9998796 0.01551766 1.8995815E-5
vn -0.999879 0.015552434 -4.498114E-6
vn -0.9998808 0.015437226 1.9648228E-6
vn -0.9998807 0.015451079 8.712652E-6
vn -0.9998808 0.015437226 1.9648228E-6
vn -0.999881 0.015423375 -4.783006E-6
vn -0.9658361 0.015019534 -0.25871828
vn -0.96579784 0.015008456 -0.2588615
vn -0.9658361 0.015019534 -0.25871828
vn -0.96587425 0.01503061 -0.25857502
vn 0.15039045 0.018247938 -0.9884582
vn 0.16401759 0.011192147 -0.986394
vn 0.21694644 0.003587171 -0.976177
vn 0.24379046 0.010238986 -0.9697739
vn 0.06315265 0.21241765 -0.97513616
vn 0.21756403 0.2464872 -0.94440985
vn 0.20648871 0.47743073 -0.85406226
vn 0.3305622 -0.007334189 -0.9437556
vn 0.32066733 0.01407145 -0.9470873
vn 0.375373 0.13747033 -0.91662264
vn 0.1497476 -0.022887237 -0.9884593
vn 0.24336654 -0.017769147 -0.9697716
vn 0.21673456 -0.010289733 -0.9761763
vn 0.1635952 -0.016259698 -0.98639363
vn 0.056548156 -0.21431811 -0.9751256
vn 0.20990756 -0.25314432 -0.94438165
vn 0.19172011 -0.48368365 -0.85398686
vn 0.33063832 -0.0028777581 -0.9437531
vn 0.32007965 -0.023986474 -0.947087
vn 0.37102884 -0.14902873 -0.916585
vn -0.018267348 -0.9998331 -3.425678E-5
vn -0.023765573 -0.9997174 -4.9721485E-4
vn -0.017553084 -0.99984586 -1.3279468E-4
vn -0.015526315 -0.9998795 2.6231937E-4
vn -0.0155102955 -0.9998797 1.1616912E-4
vn -0.015517055 -0.9998796 -3.7392E-5
vn -0.015516444 -0.9998796 2.5071632E-4
vn -0.015500657 -0.99987984 1.8120723E-4
vn -0.01552464 -0.9998795 2.4986436E-4
vn -0.015447311 -0.9998807 -3.43713E-5
vt 0.9120548 0.42879486
vt 0.9120548 0.43736953
vt 0.9566423 0.4420315
vt 0.9566423 0.42879486
vt 0.9084354 0.43295723
vt 0.90972334 0.43595427
vt 0.90772486 0.42879486
vt 0.90894616 0.41763932
vt 0.9120548 0.410563
vt 0.9566423 0.40298724
vt 0.83568823 0.5869957
vt 0.8347009 0.5786457
vt 0.83146024 0.577875
vt 0.8318854 0.58753186
vt 0.83664834 0.5710119
vt 0.83300626 0.5686947
vt 0.83146024 0.577875
vt 0.8347009 0.5786457
vt 0.83568823 0.5869957
vt 0.8396065 0.57983816
vt 0.8318854 0.58753186
vt 0.8396065 0.57983816
vt 0.83664834 0.5710119
vt 0.83664834 0.5710119
vt 0.8396065 0.57983816
vt 0.6756923 0.5215068
vt 0.66127634 0.5215068
vt 0.66127634 0.52787083
vt 0.6756923 0.52787083
vt 0.66127634 0.53445435
vt 0.6756923 0.53445435
vt 0.65683186 0.5284561
vt 0.65626216 0.51792246
vt 0.6490446 0.51938546
vt 0.6490446 0.53006536
vt 0.6202885 0.5392091
vt 0.6203075 0.5400138
vt 0.6203645 0.540599
vt 0.6490446 0.5355516
vt 0.66127634 0.5418425
vt 0.6490446 0.54198885
vt 0.66127634 0.54842603
vt 0.6490446 0.54849917
vt 0.6756923 0.54842603
vt 0.6756923 0.53445435
vt 0.6756923 0.5418425
vt 0.62045944 0.5426471
vt 0.62045944 0.5438907
vt 0.6193578 0.5422083
vt 0.6490446 0.5545706
vt 0.66127634 0.5545706
vt 0.6756923 0.5545706
vt 0.6203835 0.5446222
vt 0.6193578 0.5422083
vt 0.6756923 0.54842603
vt 0.6756923 0.5418425
vt 0.6756923 0.5545706
vt 0.6756923 0.54842603
vt 0.6203645 0.540599
vt 0.62045944 0.5426471
vt 0.6490446 0.54198885
vt 0.6490446 0.54849917
vt 0.66127634 0.54842603
vt 0.66127634 0.5418425
vt 0.6490446 0.5354785
vt 0.66127634 0.53445435
vt 0.6756923 0.54842603
vt 0.6756923 0.53445435
vt 0.6756923 0.5418425
vt 0.62045944 0.5438907
vt 0.65683186 0.5284561
vt 0.6490446 0.5299922
vt 0.6203075 0.5400138
vt 0.6490446 0.5545706
vt 0.66127634 0.5545706
vt 0.6756923 0.5545706
vt 0.6203835 0.5446222
vt 0.6193578 0.5422083
vt 0.6202885 0.5392091
vt 0.6193578 0.5422083
vt 0.66127634 0.5215068
vt 0.66127634 0.52787083
vt 0.6756923 0.5215068
vt 0.6756923 0.52787083
vt 0.6756923 0.53445435
vt 0.8369952 0.5694533
vt 0.8337057 0.5647126
vt 0.8323074 0.55700487
vt 0.8408693 0.5694988
vt 0.844876 0.55709046
vt 0.8438866 0.564801
vt 0.6193578 0.5422083
vt 0.6193578 0.5422083
vt 0.8408693 0.5694988
vt 0.8323074 0.55700487
vt 0.844876 0.55709046
vt 0.8438866 0.564801
vt 0.8369952 0.5694533
vt 0.8337057 0.5647126
vt 0.6756923 0.5418425
vt 0.6756923 0.54842603
vt 0.6756923 0.54842603
vt 0.6756923 0.5545706
vt 0.6193578 0.5422083
vt 0.9566423 0.4420315
vt 0.9120548 0.43736953
vt 0.9120548 0.42879486
vt 0.9566423 0.42879486
vt 0.9084354 0.43295723
vt 0.90972334 0.43595427
vt 0.90772486 0.42879486
vt 0.90894616 0.41763932
vt 0.9120548 0.410563
vt 0.9566423 0.40298724
vt 0.6306779 0.5305774
vt 0.6198706 0.53840446
vt 0.6287216 0.525018
vt 0.6307919 0.52655417
vt 0.6306779 0.5305774
vt 0.6198706 0.53840446
vt 0.6287216 0.525018
vt 0.6307919 0.52655417
vt 0.6306779 0.5305774
vt 0.6198706 0.53840446
vt 0.6287216 0.525018
vt 0.6307919 0.52655417
vt 0.8339634 0.5300305
vt 0.83309823 0.5126479
vt 0.83861905 0.5127723
vt 0.8383718 0.5309845
vt 0.836353 0.5432644
vt 0.83828944 0.5435964
vt 0.8389074 0.54591954
vt 0.84360427 0.5127723
vt 0.8446754 0.53239524
vt 0.84125584 0.5443845
vt 0.83400464 0.53007203
vt 0.8383718 0.5309845
vt 0.83861905 0.5127723
vt 0.83309823 0.5126479
vt 0.836353 0.5432644
vt 0.83828944 0.5435964
vt 0.8389074 0.54591954
vt 0.84360427 0.5127723
vt 0.8446754 0.53239524
vt 0.84125584 0.5443845
vt 0.8621721 0.5248068
vt 0.8578288 0.5539869
vt 0.8492298 0.5263637
vt 0.8616018 0.52013624
vt 0.86041725 0.5103947
vt 0.8452813 0.509683
vt 0.8622599 0.5131526
vt 0.86287415 0.51822346
vt 0.8630935 0.52000284
vt 0.8632689 0.5170225

g feiji
s 1
usemtl feiji
f 3/3/3 2/2/2 1/1/1 
f 1/1/1 4/4/4 3/3/3 
f 5/5/5 1/1/1 2/2/2 
f 2/2/2 6/6/6 5/5/5 
f 1/1/1 5/5/5 7/7/7 
f 1/1/1 7/7/7 8/8/8 
f 4/4/4 1/1/1 9/9/9 
f 8/8/8 9/9/9 1/1/1 
f 9/9/9 10/10/10 4/4/4 
f 13/13/13 12/12/12 11/11/11 
f 11/11/11 14/14/14 13/13/13 
f 15/15/15 12/12/12 13/13/13 
f 13/13/13 16/16/16 15/15/15 
f 15/15/15 16/16/16 17/17/17 
f 17/17/17 18/18/18 15/15/15 
f 19/19/19 18/18/18 17/17/17 
f 12/12/12 20/20/20 19/19/19 
f 19/19/19 20/20/20 18/18/18 
f 17/17/17 21/21/21 19/19/19 
f 12/12/12 23/23/23 22/22/22 
f 25/25/25 24/24/24 18/18/18 
f 28/28/28 27/27/27 26/26/26 
f 26/26/26 29/29/29 28/28/28 
f 30/30/30 28/28/28 29/29/29 
f 29/29/29 31/31/31 30/30/30 
f 30/30/30 32/32/32 28/28/28 
f 27/27/27 28/28/28 32/32/32 
f 32/32/32 33/33/33 27/27/27 
f 34/34/34 33/33/33 32/32/32 
f 32/32/32 35/35/35 34/34/34 
f 36/36/36 34/34/34 35/35/35 
f 35/35/35 37/37/37 36/36/36 
f 38/38/38 37/37/37 35/35/35 
f 35/35/35 39/39/39 38/38/38 
f 32/32/32 30/30/30 39/39/39 
f 39/39/39 35/35/35 32/32/32 
f 39/39/39 30/30/30 40/40/40 
f 40/40/40 41/41/41 39/39/39 
f 38/38/38 39/39/39 41/41/41 
f 41/41/41 40/40/40 42/42/42 
f 42/42/42 43/43/43 41/41/41 
f 44/44/44 42/42/42 40/40/40 
f 40/40/40 30/30/30 45/45/45 
f 45/45/45 46/46/46 40/40/40 
f 47/47/47 41/41/41 43/43/43 
f 41/41/41 47/47/47 38/38/38 
f 43/43/43 48/48/48 47/47/47 
f 47/47/47 49/49/49 38/38/38 
f 48/48/48 49/49/49 47/47/47 
f 50/50/50 43/43/43 42/42/42 
f 42/42/42 51/51/51 50/50/50 
f 52/52/52 51/51/51 42/42/42 
f 43/43/43 50/50/50 53/53/53 
f 53/53/53 48/48/48 43/43/43 
f 53/53/53 54/54/54 48/48/48 
f 40/40/40 56/56/56 55/55/55 
f 42/42/42 58/58/58 57/57/57 
f 60/60/60 59/59/59 49/49/49 
f 59/59/59 60/60/60 61/61/61 
f 62/62/62 61/61/61 60/60/60 
f 61/61/61 62/62/62 63/63/63 
f 63/63/63 64/64/64 61/61/61 
f 65/65/65 61/61/61 64/64/64 
f 61/61/61 65/65/65 59/59/59 
f 64/64/64 66/66/66 65/65/65 
f 64/64/64 63/63/63 67/67/67 
f 68/68/68 66/66/66 64/64/64 
f 64/64/64 69/69/69 68/68/68 
f 60/60/60 70/70/70 62/62/62 
f 65/65/65 66/66/66 71/71/71 
f 71/71/71 72/72/72 65/65/65 
f 65/65/65 72/72/72 73/73/73 
f 73/73/73 59/59/59 65/65/65 
f 70/70/70 60/60/60 49/49/49 
f 63/63/63 62/62/62 74/74/74 
f 74/74/74 75/75/75 63/63/63 
f 63/63/63 75/75/75 76/76/76 
f 77/77/77 74/74/74 62/62/62 
f 62/62/62 70/70/70 77/77/77 
f 77/77/77 70/70/70 78/78/78 
f 79/79/79 73/73/73 72/72/72 
f 72/72/72 34/34/34 79/79/79 
f 34/34/34 72/72/72 71/71/71 
f 80/80/80 73/73/73 79/79/79 
f 71/71/71 33/33/33 34/34/34 
f 81/81/81 33/33/33 71/71/71 
f 71/71/71 82/82/82 81/81/81 
f 83/83/83 81/81/81 82/82/82 
f 82/82/82 84/84/84 83/83/83 
f 84/84/84 82/82/82 66/66/66 
f 66/66/66 85/85/85 84/84/84 
f 66/66/66 82/82/82 71/71/71 
f 88/88/88 87/87/87 86/86/86 
f 86/86/86 89/89/89 88/88/88 
f 90/90/90 88/88/88 89/89/89 
f 89/89/89 91/91/91 90/90/90 
f 92/92/92 36/36/36 37/37/37 
f 93/93/93 37/37/37 38/38/38 
f 96/96/96 95/95/95 94/94/94 
f 94/94/94 97/97/97 96/96/96 
f 98/98/98 94/94/94 95/95/95 
f 95/95/95 99/99/99 98/98/98 
f 101/101/101 100/100/100 64/64/64 
f 103/103/103 102/102/102 63/63/63 
f 104/104/104 59/59/59 73/73/73 
f 107/107/107 106/106/106 105/105/105 
f 105/105/105 108/108/108 107/107/107 
f 106/106/106 107/107/107 109/109/109 
f 109/109/109 110/110/110 106/106/106 
f 111/111/111 109/109/109 107/107/107 
f 112/112/112 111/111/111 107/107/107 
f 113/113/113 107/107/107 108/108/108 
f 107/107/107 113/113/113 112/112/112 
f 108/108/108 114/114/114 113/113/113 
f 117/117/117 116/116/116 115/115/115 
f 115/115/115 118/118/118 117/117/117 
f 121/121/121 120/120/120 119/119/119 
f 119/119/119 122/122/122 121/121/121 
f 125/125/125 124/124/124 123/123/123 
f 123/123/123 126/126/126 125/125/125 
f 129/129/129 128/128/128 127/127/127 
f 127/127/127 130/130/130 129/129/129 
f 130/130/130 127/127/127 131/131/131 
f 131/131/131 132/132/132 130/130/130 
f 131/131/131 133/133/133 132/132/132 
f 134/134/134 129/129/129 130/130/130 
f 130/130/130 135/135/135 134/134/134 
f 136/136/136 135/135/135 130/130/130 
f 130/130/130 132/132/132 136/136/136 
f 136/136/136 132/132/132 133/133/133 
f 139/139/139 138/138/138 137/137/137 
f 137/137/137 140/140/140 139/139/139 
f 141/141/141 137/137/137 138/138/138 
f 138/138/138 142/142/142 141/141/141 
f 142/142/142 143/143/143 141/141/141 
f 138/138/138 139/139/139 144/144/144 
f 144/144/144 145/145/145 138/138/138 
f 138/138/138 145/145/145 146/146/146 
f 146/146/146 142/142/142 138/138/138 
f 146/146/146 143/143/143 142/142/142 
f 149/149/149 148/148/148 147/147/147 
f 147/147/147 150/150/150 149/149/149 
f 149/149/149 150/150/150 151/151/151 
f 151/151/151 152/152/152 149/149/149 
f 153/153/153 151/151/151 150/150/150 
f 150/150/150 154/154/154 153/153/153 
f 155/155/155 154/154/154 150/150/150 
f 150/150/150 147/147/147 155/155/155 
f 154/154/154 155/155/155 156/156/156 
f 154/154/154 156/156/156 153/153/153 

