# 3ds Max Wavefront OBJ Exporter v0.97b - (c)2007 guruware
# File Created: 12.12.2016 17:09:40

mtllib 113_artillery0.mtl

#
# object artillery0
#

v  25.6076 1.5774 -2.3557
v  26.5924 -2.1074 -1.4563
v  25.6062 1.3303 -2.9308
v  26.0916 1.5523 0.4802
v  26.0878 -2.1539 3.9535
v  25.6182 1.5242 3.7636
v  26.0743 -2.0866 -3.7788
v  25.7458 0.3104 -3.5166
v  20.8576 1.5831 -2.3531
v  23.0829 1.5237 4.1485
v  20.8576 1.5257 4.2365
v  20.8576 1.3360 -2.9281
v  20.8576 0.3162 -3.5139
v  20.8576 -2.0804 -3.7759
v  23.0787 -2.1538 4.3387
v  20.8576 -2.1518 4.4266
v  21.6937 -1.2494 -1.6745
v  22.1224 0.8356 -4.6383
v  21.6881 0.5968 -4.6805
v  22.1224 -1.0105 -1.6324
v  22.1224 1.2851 -5.6440
v  21.8244 1.1220 -5.6727
v  22.1224 4.0043 -10.1880
v  21.8749 3.8734 -10.2111
v  21.6875 0.1185 -4.7653
v  22.1224 -1.9670 -1.8020
v  21.6931 -1.7276 -1.7593
v  22.1224 -0.1209 -4.8080
v  21.8240 0.7953 -5.7307
v  22.1224 0.6317 -5.7599
v  21.8745 3.6112 -10.2576
v  22.1224 3.4799 -10.2810
v  22.5511 -1.2494 -1.6745
v  22.5566 0.5968 -4.6805
v  22.4204 1.1220 -5.6727
v  22.3699 3.8734 -10.2111
v  22.5572 0.1185 -4.7653
v  22.5517 -1.7276 -1.7593
v  22.4208 0.7953 -5.7307
v  22.3703 3.6112 -10.2576
v  16.1077 1.5774 -2.3557
v  15.1228 -2.1074 -1.4563
v  15.6237 1.5523 0.4802
v  16.1090 1.3303 -2.9308
v  15.6275 -2.1539 3.9535
v  16.0970 1.5242 3.7636
v  15.6409 -2.0866 -3.7788
v  15.9695 0.3104 -3.5166
v  18.6324 1.5237 4.1485
v  18.6365 -2.1538 4.3387
v  20.0216 -1.2494 -1.6745
v  19.5929 0.8356 -4.6383
v  19.5929 -1.0105 -1.6324
v  20.0271 0.5968 -4.6805
v  19.5929 1.2852 -5.6440
v  19.8909 1.1220 -5.6727
v  19.5929 4.0043 -10.1880
v  19.8404 3.8734 -10.2111
v  20.0277 0.1185 -4.7653
v  19.5929 -1.9670 -1.8020
v  19.5929 -0.1209 -4.8080
v  20.0222 -1.7276 -1.7593
v  19.8913 0.7953 -5.7307
v  19.5929 0.6317 -5.7599
v  19.8408 3.6112 -10.2576
v  19.5929 3.4799 -10.2810
v  19.1642 -1.2494 -1.6745
v  19.1586 0.5968 -4.6805
v  19.2949 1.1220 -5.6727
v  19.3454 3.8734 -10.2111
v  19.1580 0.1185 -4.7653
v  19.1636 -1.7276 -1.7593
v  19.2945 0.7953 -5.7307
v  19.3450 3.6112 -10.2576
v  13.1527 2.2704 3.5414
v  28.5625 2.2704 1.8949
v  13.1527 2.2704 1.8949
v  28.5625 2.2704 3.5414
v  28.5625 0.6564 1.8949
v  13.1527 0.6564 1.8949
v  13.1527 0.6564 3.5414
v  28.5625 0.6564 3.5414
v  19.9972 1.2854 -0.8814
v  20.4305 2.3838 -0.4819
v  20.0022 2.3866 -0.8814
v  20.4254 1.2826 -0.4827
v  21.2884 2.3798 -0.4815
v  21.2833 1.2785 -0.4822
v  21.7181 2.3786 -0.8814
v  21.7130 1.2774 -0.8814
v  20.4305 2.3838 -1.2809
v  20.4254 1.2826 -1.2802
v  21.2884 2.3798 -1.2813
v  21.2833 1.2785 -1.2806
# 94 vertices

vn 0.5550 0.8065 -0.2039
vn 0.9828 0.1620 -0.0886
vn 0.5482 0.6376 -0.5412
vn 0.6883 0.7252 0.0164
vn 0.7183 0.1116 0.6867
vn 0.5316 0.6359 0.5595
vn 0.6336 0.1866 -0.7508
vn 0.6431 0.3041 -0.7028
vn -0.0000 0.9804 -0.1972
vn 0.0673 0.7099 0.7010
vn 0.0000 0.7138 0.7003
vn -0.0000 0.7469 -0.6649
vn -0.0000 0.3101 -0.9507
vn -0.0000 0.1087 -0.9941
vn 0.0876 0.0563 0.9946
vn 0.0000 0.0516 0.9987
vn -0.9029 0.3658 0.2259
vn 0.0000 0.8871 0.4616
vn -0.8620 0.4647 0.2025
vn 0.0000 0.8521 0.5233
vn 0.0000 0.8843 0.4669
vn -0.8597 0.4682 0.2041
vn -0.0000 0.9494 -0.3140
vn -0.6858 0.5889 -0.4275
vn -0.8478 -0.4186 -0.3257
vn 0.0000 -0.8525 -0.5227
vn -0.7927 -0.5201 -0.3180
vn 0.0000 -0.8241 -0.5664
vn -0.8406 -0.4171 -0.3455
vn -0.0000 -0.8124 -0.5831
vn -0.6768 -0.1824 -0.7132
vn 0.0000 -0.5144 -0.8575
vn 0.9029 0.3658 0.2259
vn 0.8620 0.4647 0.2025
vn 0.8597 0.4682 0.2041
vn 0.6858 0.5889 -0.4275
vn 0.8478 -0.4186 -0.3257
vn 0.7927 -0.5201 -0.3180
vn 0.8406 -0.4171 -0.3455
vn 0.6768 -0.1825 -0.7132
vn -0.5550 0.8065 -0.2039
vn -0.9828 0.1620 -0.0886
vn -0.6883 0.7252 0.0164
vn -0.5482 0.6376 -0.5412
vn -0.7183 0.1116 0.6867
vn -0.5316 0.6359 0.5595
vn -0.6336 0.1866 -0.7508
vn -0.6431 0.3041 -0.7028
vn -0.0673 0.7099 0.7010
vn -0.0876 0.0563 0.9946
vn -0.0000 0.8871 0.4617
vn -0.0000 -0.8241 -0.5664
vn 0.8406 -0.4172 -0.3455
vn 0.0000 -0.8124 -0.5831
vn 0.6768 -0.1824 -0.7132
vn -0.8406 -0.4172 -0.3455
vn -0.5774 0.5774 0.5774
vn 0.5774 0.5774 -0.5773
vn -0.5774 0.5774 -0.5774
vn 0.5774 0.5773 0.5774
vn 0.7071 0.0000 -0.7071
vn -0.7071 0.0000 -0.7071
vn -0.7071 -0.0000 0.7071
vn 0.7071 -0.0000 0.7071
vn -1.0000 0.0041 0.0000
vn -0.2808 0.6335 0.7210
vn -0.8161 0.5779 0.0000
vn -0.3663 0.0011 0.9305
vn 0.2860 0.6309 0.7212
vn 0.3654 -0.0021 0.9308
vn 0.8216 0.5701 0.0000
vn 1.0000 -0.0046 0.0000
vn -0.2808 0.6335 -0.7210
vn -0.3663 0.0011 -0.9305
vn 0.2860 0.6309 -0.7212
vn 0.3654 -0.0021 -0.9308
# 76 vertex normals

vt 0.3176 0.7901 0.0000
vt 0.3313 0.8092 0.0000
vt 0.3094 0.7916 0.0000
vt 0.3583 0.7901 0.0000
vt 0.4064 0.8092 0.0000
vt 0.4069 0.7901 0.0000
vt 0.2979 0.8092 0.0000
vt 0.3012 0.7970 0.0000
vt 0.4920 0.8482 0.0000
vt 0.4513 0.8482 0.0000
vt 0.4962 0.8181 0.0000
vt 0.4704 0.7790 0.0000
vt 0.4513 0.7781 0.0000
vt 0.4921 0.7831 0.0000
vt 0.4513 0.8545 0.0000
vt 0.4920 0.8545 0.0000
vt 0.4513 0.8630 0.0000
vt 0.4932 0.8630 0.0000
vt 0.4513 0.8770 0.0000
vt 0.4960 0.8770 0.0000
vt 0.4301 0.8092 0.0000
vt 0.4271 0.7901 0.0000
vt 0.4471 0.8092 0.0000
vt 0.4442 0.7901 0.0000
vt 0.3205 0.7723 0.0000
vt 0.2289 0.7676 0.0000
vt 0.2291 0.7725 0.0000
vt 0.3204 0.7669 0.0000
vt 0.1990 0.7691 0.0000
vt 0.1992 0.7730 0.0000
vt 0.0612 0.7721 0.0000
vt 0.0613 0.7747 0.0000
vt 0.2291 0.7773 0.0000
vt 0.3204 0.7830 0.0000
vt 0.3205 0.7777 0.0000
vt 0.2290 0.7822 0.0000
vt 0.1992 0.7771 0.0000
vt 0.1992 0.7810 0.0000
vt 0.0613 0.7773 0.0000
vt 0.0613 0.7800 0.0000
vt 0.9969 0.7760 0.0000
vt 0.9815 0.7707 0.0000
vt 0.9969 0.7883 0.0000
vt 0.9815 0.7936 0.0000
vt 0.4456 0.8737 0.0000
vt 0.3219 0.8901 0.0000
vt 0.4456 0.8901 0.0000
vt 0.3219 0.8737 0.0000
vt 0.3219 0.8987 0.0000
vt 0.4456 0.8987 0.0000
vt 0.9287 0.7527 0.0000
vt 0.9094 0.7771 0.0000
vt 0.9094 0.7527 0.0000
vt 0.9287 0.7771 0.0000
vt 0.4456 0.8651 0.0000
vt 0.3219 0.8651 0.0000
vt 0.3089 0.8737 0.0000
vt 0.3089 0.8901 0.0000
vt 0.7022 0.6790 0.0000
vt 0.6741 0.6550 0.0000
vt 0.7020 0.6550 0.0000
vt 0.6742 0.6790 0.0000
vt 0.6461 0.6550 0.0000
vt 0.6463 0.6790 0.0000
vt 0.6182 0.6550 0.0000
vt 0.6183 0.6790 0.0000
vt 0.6879 0.6404 0.0000
vt 0.6458 0.6543 0.0000
vt 0.6317 0.6404 0.0000
vt 0.6739 0.6543 0.0000
# 70 texture coords

g artillery0
usemtl _113_artillery0artillery0
s 1
f 1/1/1 2/2/2 3/3/3 
f 2/2/2 1/1/1 4/4/4 
f 4/4/4 5/5/5 2/2/2 
f 5/5/5 4/4/4 6/6/6 
f 7/7/7 3/3/3 2/2/2 
f 3/3/3 7/7/7 8/8/8 
f 1/9/1 9/10/9 4/11/4 
f 10/12/10 4/11/4 9/10/9 
f 10/12/10 9/10/9 11/13/11 
f 4/11/4 10/12/10 6/14/6 
f 1/9/1 12/15/12 9/10/9 
f 12/15/12 1/9/1 3/16/3 
f 3/16/3 13/17/13 12/15/12 
f 13/17/13 3/16/3 8/18/8 
f 8/18/8 14/19/14 13/17/13 
f 14/19/14 8/18/8 7/20/7 
f 15/21/15 6/6/6 10/22/10 
f 6/6/6 15/21/15 5/5/5 
f 10/22/10 16/23/16 15/21/15 
f 16/23/16 10/22/10 11/24/11 
f 17/25/17 18/26/18 19/27/19 
f 18/26/18 17/25/17 20/28/20 
f 21/29/21 19/27/19 18/26/18 
f 19/27/19 21/29/21 22/30/22 
f 23/31/23 22/30/22 21/29/21 
f 22/30/22 23/31/23 24/32/24 
f 25/33/25 26/34/26 27/35/27 
f 26/34/26 25/33/25 28/36/28 
f 29/37/29 28/36/28 25/33/25 
f 28/36/28 29/37/29 30/38/30 
f 31/39/31 30/38/30 29/37/29 
f 30/38/30 31/39/31 32/40/32 
f 27/35/27 19/27/19 25/33/25 
f 19/27/19 27/35/27 17/25/17 
f 22/30/22 25/33/25 19/27/19 
f 25/33/25 22/30/22 29/37/29 
f 24/32/24 29/37/29 22/30/22 
f 29/37/29 24/32/24 31/39/31 
f 24/41/24 23/42/23 31/43/31 
f 32/44/32 31/43/31 23/42/23 
f 33/25/33 18/26/18 20/28/20 
f 18/26/18 33/25/33 34/27/34 
f 34/27/34 21/29/21 18/26/18 
f 21/29/21 34/27/34 35/30/35 
f 35/30/35 23/31/23 21/29/21 
f 23/31/23 35/30/35 36/32/36 
f 37/33/37 26/34/26 28/36/28 
f 26/34/26 37/33/37 38/35/38 
f 28/36/28 39/37/39 37/33/37 
f 39/37/39 28/36/28 30/38/30 
f 30/38/30 40/39/40 39/37/39 
f 40/39/40 30/38/30 32/40/32 
f 38/35/38 34/27/34 33/25/33 
f 34/27/34 38/35/38 37/33/37 
f 37/33/37 35/30/35 34/27/34 
f 35/30/35 37/33/37 39/37/39 
f 39/37/39 36/32/36 35/30/35 
f 36/32/36 39/37/39 40/39/40 
f 36/41/36 40/43/40 23/42/23 
f 32/44/32 23/42/23 40/43/40 
f 41/1/41 42/2/42 43/4/43 
f 42/2/42 41/1/41 44/3/44 
f 45/5/45 43/4/43 42/2/42 
f 43/4/43 45/5/45 46/6/46 
f 44/3/44 47/7/47 42/2/42 
f 47/7/47 44/3/44 48/8/48 
f 41/9/41 43/11/43 9/10/9 
f 43/11/43 49/12/49 9/10/9 
f 49/12/49 11/13/11 9/10/9 
f 49/12/49 43/11/43 46/14/46 
f 12/15/12 41/9/41 9/10/9 
f 41/9/41 12/15/12 44/16/44 
f 13/17/13 44/16/44 12/15/12 
f 44/16/44 13/17/13 48/18/48 
f 14/19/14 48/18/48 13/17/13 
f 48/18/48 14/19/14 47/20/47 
f 50/21/50 46/6/46 45/5/45 
f 46/6/46 50/21/50 49/22/49 
f 16/23/16 49/22/49 50/21/50 
f 49/22/49 16/23/16 11/24/11 
f 51/25/33 52/26/51 53/28/20 
f 52/26/51 51/25/33 54/27/34 
f 54/27/34 55/29/21 52/26/51 
f 55/29/21 54/27/34 56/30/35 
f 56/30/35 57/31/23 55/29/21 
f 57/31/23 56/30/35 58/32/36 
f 59/33/37 60/34/26 61/36/52 
f 60/34/26 59/33/37 62/35/38 
f 61/36/52 63/37/53 59/33/37 
f 63/37/53 61/36/52 64/38/54 
f 64/38/54 65/39/55 63/37/53 
f 65/39/55 64/38/54 66/40/32 
f 62/35/38 54/27/34 51/25/33 
f 54/27/34 62/35/38 59/33/37 
f 59/33/37 56/30/35 54/27/34 
f 56/30/35 59/33/37 63/37/53 
f 63/37/53 58/32/36 56/30/35 
f 58/32/36 63/37/53 65/39/55 
f 58/41/36 65/43/55 57/42/23 
f 66/44/32 57/42/23 65/43/55 
f 67/25/17 52/26/51 68/27/19 
f 52/26/51 67/25/17 53/28/20 
f 55/29/21 68/27/19 52/26/51 
f 68/27/19 55/29/21 69/30/22 
f 57/31/23 69/30/22 55/29/21 
f 69/30/22 57/31/23 70/32/24 
f 71/33/25 60/34/26 72/35/27 
f 60/34/26 71/33/25 61/36/52 
f 73/37/56 61/36/52 71/33/25 
f 61/36/52 73/37/56 64/38/54 
f 74/39/31 64/38/54 73/37/56 
f 64/38/54 74/39/31 66/40/32 
f 72/35/27 68/27/19 71/33/25 
f 68/27/19 72/35/27 67/25/17 
f 69/30/22 71/33/25 68/27/19 
f 71/33/25 69/30/22 73/37/56 
f 70/32/24 73/37/56 69/30/22 
f 73/37/56 70/32/24 74/39/31 
f 70/41/24 57/42/23 74/43/31 
f 66/44/32 74/43/31 57/42/23 
f 75/45/57 76/46/58 77/47/59 
f 76/46/58 75/45/57 78/48/60 
f 77/47/59 79/49/61 80/50/62 
f 79/49/61 77/47/59 76/46/58 
f 75/51/57 80/52/62 81/53/63 
f 80/52/62 75/51/57 77/54/59 
f 78/48/60 81/55/63 82/56/64 
f 81/55/63 78/48/60 75/45/57 
f 76/46/58 82/57/64 79/58/61 
f 82/57/64 76/46/58 78/48/60 
f 83/59/65 84/60/66 85/61/67 
f 84/60/66 83/59/65 86/62/68 
f 86/62/68 87/63/69 84/60/66 
f 87/63/69 86/62/68 88/64/70 
f 88/64/70 89/65/71 87/63/69 
f 89/65/71 88/64/70 90/66/72 
f 85/67/67 87/68/69 89/69/71 
f 87/68/69 85/67/67 84/70/66 
f 83/59/65 91/60/73 92/62/74 
f 91/60/73 83/59/65 85/61/67 
f 93/63/75 92/62/74 91/60/73 
f 92/62/74 93/63/75 94/64/76 
f 89/65/71 94/64/76 93/63/75 
f 94/64/76 89/65/71 90/66/72 
f 85/67/67 93/68/75 91/70/73 
f 93/68/75 85/67/67 89/69/71 
# 0 polygons - 146 triangles

