# Created by DisUnity v0.3.4
v -0.358913 0.12264717 -0.018057201
v -0.358913 0.12264719 -0.23268504
v -0.008131742 0.3775069 -0.23268506
v -0.008131742 0.37750688 -0.018057212
v -0.008131742 0.3775069 -0.23268506
v 0.34265563 0.12264719 -0.23268504
v 0.34265563 0.12264719 -0.23268504
v 0.34265563 0.12264717 -0.018057201
v 0.34265563 0.12264719 -0.23268504
v 0.2086743 -0.28972712 -0.23268503
v 0.2086743 -0.28972706 -0.018057184
v -0.22492556 -0.28972712 -0.23268503
v -0.22492556 -0.28972706 -0.018057184
v -0.358913 0.12264719 -0.23268504
v -0.358913 0.12264717 -0.018057201
v -0.358913 0.12264719 -0.23268504
v -2.1872592 0.121472076 -1.2873946
v -0.32411382 0.15875654 -0.7875602
v -0.34230992 0.061325736 -0.71795803
v -2.1984928 0.061325736 -1.2444259
v -0.32411382 -0.036105826 -0.7875602
v -2.1872592 0.0011782649 -1.2873946
v -0.2946674 0.0011122638 -0.90018004
v -2.1690845 0.024149988 -1.3569199
v -0.29466587 0.12154455 -0.90018004
v -2.169083 0.09850149 -1.3569199
v -0.32411382 0.15875654 -0.7875602
v -2.1872592 0.121472076 -1.2873946
v -2.1872592 0.0011782649 -1.2873946
v -2.1690845 0.024149988 -1.3569199
v -2.169083 0.09850149 -1.3569199
v -2.1872592 0.121472076 -1.2873946
v -2.1984928 0.061325736 -1.2444259
v -0.2856159 0.6967589 -1.2789348
v 0.40588042 0.6967589 -1.3939323
v 0.40588042 0.6967588 -0.24428861
v -0.41981083 0.6967588 -0.24428824
v -0.2856159 -0.5614133 -1.2789348
v -0.41981083 -0.5614131 -0.24428818
v 0.40588042 -0.5614131 -0.24428856
v 0.40588042 -0.56141293 -1.3939323
v -0.2856159 -0.5614133 -1.2789348
v -0.2856159 0.6967589 -1.2789348
v -0.41981083 0.6967588 -0.24428824
v -0.41981083 -0.5614131 -0.24428818
v 0.40588042 0.36623564 -1.3939323
v 0.40588042 0.6967589 -1.3939323
v -0.2856159 0.6967589 -1.2789348
v 0.40587887 -0.23088999 -1.3939323
v 0.40588042 -0.56141293 -1.3939323
v -0.2856159 -0.5614133 -1.2789348
v 0.08566099 0.48508713 -1.0662823
v 0.08566099 -0.34974262 -1.0662823
v 0.08566099 -0.2308904 -0.24428858
v 0.08566099 0.36623564 -0.2442886
v 0.40587887 -0.2308904 -0.24428858
v 0.40587887 -0.34974262 -1.0662818
v 0.40588042 0.48508713 -1.0662819
v 0.40588042 0.36623564 -0.2442886
v 0.40587887 -0.34974262 -1.0662818
v 0.40587887 -0.23088999 -1.3939323
v 0.40588042 -0.56141293 -1.3939323
v 0.40588042 -0.5614131 -0.24428856
v 0.40587887 -0.2308904 -0.24428858
v 0.40588042 0.48508713 -1.0662819
v 0.40588042 0.36623564 -1.3939323
v 0.40588042 0.6967589 -1.3939323
v 0.40588042 0.36623564 -0.2442886
v 0.40588042 0.6967588 -0.24428861
v 0.7500455 0.42279652 -0.24506184
v 0.7500729 0.4224224 -0.32584873
v 0.40650448 0.42236316 -0.32599714
v 0.40646788 0.42270878 -0.24522053
v 0.4064221 0.68396074 -0.3271999
v 0.7500226 0.6528122 -0.3268917
v 0.4063824 0.6828404 -0.24641111
v 0.7500226 0.6528122 -0.3268917
v 0.74997985 0.6531765 -0.24614218
v 0.74997985 0.6531765 -0.24614218
v 0.7500226 0.6528122 -0.3268917
v 0.7500729 0.4224224 -0.32584873
v 0.7500455 0.42279652 -0.24506184
v -0.36031833 0.5386527 -1.0182228
v -0.36024815 0.34247467 -1.0173222
v -0.32863805 0.34110403 -1.314756
v -0.32869297 0.5373149 -1.3156666
v -0.27384526 0.5375552 -1.2629757
v -0.30545384 0.5386901 -1.0182003
v -0.3053882 0.34249145 -1.0172993
v -0.27379185 0.34135693 -1.2620869
v -0.17460361 0.34108227 -1.3294388
v -0.17466769 0.5372817 -1.330349
v -0.27384526 0.5375552 -1.2629757
v -0.17469668 0.5375289 -1.2777058
v -0.17464328 0.34132642 -1.2768078
v -0.27379185 0.34135693 -1.2620869
v -0.17466769 0.5372817 -1.330349
v -0.17460361 0.34108227 -1.3294388
v -0.17464328 0.34132642 -1.2768078
v -0.17469668 0.5375289 -1.2777058
v -0.7976658 0.19429961 -0.8126968
v -0.96190065 0.19427748 -0.8556861
v -0.9363803 0.15515889 -0.9526649
v -0.7720997 0.15520734 -0.9096321
v -0.9615223 -0.06496401 -0.8543731
v -0.93615144 -0.026756762 -0.95174325
v -0.77181584 -0.026731212 -0.9087272
v -0.7971683 -0.06492167 -0.8113258
v -0.7976658 0.19429961 -0.8126968
v -0.7720997 0.15520734 -0.9096321
v 0.8114941 0.19489479 -0.3056808
v 0.020539524 0.1948247 -0.5126083
v 0.108459145 0.19324903 -0.8482841
v 0.8994 0.19333124 -0.6413597
v 0.021308567 -0.06020899 -0.5111892
v 0.10921903 -0.061811168 -0.8468536
v 0.9003308 -0.061727054 -0.63989633
v 0.8124417 -0.060147576 -0.30426553
v 0.9003308 -0.061727054 -0.63989633
v 0.10921903 -0.061811168 -0.8468536
v 0.8124417 -0.060147576 -0.30426553
v 0.8994 0.19333124 -0.6413597
v 0.108459145 0.19324903 -0.8482841
v 0.10921903 -0.061811168 -0.8468536
v 0.9003308 -0.061727054 -0.63989633
v -0.36031833 -0.19635363 -1.0182228
v -0.36024663 -0.39253208 -1.0173221
v -0.32863957 -0.39390233 -1.3147559
v -0.3286945 -0.19769184 -1.3156666
v -0.27384526 -0.19745152 -1.2629757
v -0.30545384 -0.19631663 -1.0182003
v -0.3053882 -0.3925149 -1.0172992
v -0.27379185 -0.3936498 -1.2620869
v -0.17460361 -0.39392444 -1.3294387
v -0.17466769 -0.19772464 -1.330349
v -0.27384526 -0.19745152 -1.2629757
v -0.17469668 -0.19747783 -1.2777057
v -0.17464328 -0.3936803 -1.2768078
v -0.27379185 -0.3936498 -1.2620869
v -0.17466769 -0.19772464 -1.330349
v -0.17460361 -0.39392444 -1.3294387
v -0.17464328 -0.3936803 -1.2768078
v -0.17469668 -0.19747783 -1.2777057
v -0.9309528 0.09844313 -0.7964233
v -0.37098423 0.1056508 -0.64756316
v -0.37926364 0.06132574 -0.61589885
v -0.9378833 0.06132574 -0.7699066
v -0.37098423 0.017000483 -0.6475631
v -0.9309513 0.024207972 -0.7964233
v -0.35758853 0.033932395 -0.6987983
v -0.9197361 0.038384147 -0.8393272
v -0.35759005 0.08872175 -0.69879836
v -0.9197361 0.084267706 -0.8393272
v -0.37098423 0.1056508 -0.64756316
v -0.9309528 0.09844313 -0.7964233
v -0.9309513 0.024207972 -0.7964233
v -0.9197361 0.038384147 -0.8393272
v -0.9197361 0.084267706 -0.8393272
v -0.9309528 0.09844313 -0.7964233
v -0.9378833 0.06132574 -0.7699066
v 0.7500455 -0.5332738 -0.2450618
v 0.7500729 -0.533648 -0.3258487
v 0.40650448 -0.5337074 -0.32599708
v 0.40646788 -0.53336173 -0.2452205
v 0.40642056 -0.2721097 -0.32719988
v 0.7500226 -0.30325824 -0.32689163
v 0.40638396 -0.2732301 -0.24641107
v 0.7500226 -0.30325824 -0.32689163
v 0.74997985 -0.30289394 -0.24614213
v 0.74997985 -0.30289394 -0.24614213
v 0.7500226 -0.30325824 -0.32689163
v 0.7500729 -0.533648 -0.3258487
v 0.7500455 -0.5332738 -0.2450618
vn -0.8516018 0.5241893 0.0
vn -0.9256151 0.07099821 -0.37174734
vn -0.15058774 0.6217876 -0.7685724
vn 0.23537259 0.9719052 0.0
vn -0.15058774 0.6217876 -0.7685724
vn 0.7905664 0.48663044 -0.37174687
vn 0.7905664 0.48663044 -0.37174687
vn 0.9970702 0.07649124 0.0
vn 0.7905664 0.48663044 -0.37174687
vn 0.59452933 -0.50572485 -0.62512183
vn 0.38085112 -0.92463636 0.0
vn -0.29726267 -0.7217061 -0.62512016
vn -0.76169574 -0.6479348 0.0
vn -0.9256151 0.07099821 -0.37174734
vn -0.8516018 0.5241893 0.0
vn -0.9256151 0.07099821 -0.37174734
vn -0.21952602 0.59392846 0.7739878
vn -0.21952792 0.59392095 0.77399313
vn -0.26496163 0.23895524 0.9341818
vn -0.2649624 -0.23894511 0.9341842
vn -0.15077607 -0.8537719 0.4983372
vn -0.03883559 -0.9967616 0.07041476
vn 0.1439259 -0.7638112 -0.6291882
vn 0.21436413 -0.38191465 -0.8989935
vn 0.21436377 0.38190746 -0.8989966
vn 0.14392005 0.76382506 -0.62917274
vn 0.061080396 0.952385 -0.2987172
vn 0.061073758 0.95239204 -0.29869634
vn -0.9674904 1.9846011E-5 -0.25290757
vn -0.9674904 1.9846011E-5 -0.25290757
vn -0.9674904 1.9846011E-5 -0.25290757
vn -0.9674837 0.0 -0.2529336
vn -0.9674836 0.0 -0.25293374
vn -0.0 1.0 0.0
vn -0.0 1.0 0.0
vn -0.0 1.0 0.0
vn -0.0 1.0 0.0
vn -0.0 -1.0 0.0
vn -0.0 -1.0 0.0
vn -0.0 -1.0 0.0
vn -0.0 -1.0 0.0
vn -0.99169344 0.0 -0.12862386
vn -0.99169344 0.0 -0.12862386
vn -0.99169344 0.0 -0.12862386
vn -0.99169344 0.0 -0.12862386
vn -0.16404927 0.0 -0.9864522
vn -0.16404937 0.0 -0.9864522
vn -0.16404937 0.0 -0.9864522
vn -0.16404992 0.0 -0.9864521
vn -0.1640507 0.0 -0.986452
vn -0.16404937 0.0 -0.9864522
vn 0.8944273 -0.4426109 -0.06399679
vn 0.44721368 0.8852217 -0.1279944
vn 0.8944272 0.44261083 -0.06399719
vn 0.44721362 -0.8852217 -0.12799361
vn -0.0 0.98970795 -0.14310211
vn -0.0 0.98970795 -0.14310211
vn -0.0 -0.98970807 -0.14310125
vn -0.0 -0.98970807 -0.14310125
vn 1.0 3.653525E-6 0.0
vn 1.0 4.61656E-6 1.674621E-6
vn 1.0 4.61656E-6 1.674621E-6
vn 1.0 7.2087505E-6 0.0
vn 1.0 4.616563E-6 0.0
vn 1.0 -1.0957864E-6 0.0
vn 1.0 0.0 0.0
vn 1.0 0.0 0.0
vn 1.0 0.0 0.0
vn 1.0 0.0 0.0
vn 2.1188104E-4 -0.9999901 0.004454905
vn 0.66704464 -0.33620954 -0.6648418
vn 3.8300018E-4 -0.89642316 -0.44319892
vn 2.5338746E-4 -0.9999908 0.0042787297
vn 0.041080352 0.44454038 -0.89481634
vn 0.46822757 0.7909336 -0.3939378
vn 0.08814294 0.9960968 0.00470242
vn 0.46822757 0.7909336 -0.3939378
vn 0.08601595 0.9962838 -0.0044492935
vn 0.9999999 2.5367062E-4 4.333779E-4
vn 0.46822757 0.7909336 -0.3939378
vn 0.66704464 -0.33620954 -0.6648418
vn 0.9999999 2.8639054E-4 3.3865232E-4
vn -0.7033883 0.70651305 -0.07800236
vn -0.70291513 -0.70767665 -0.071441956
vn -0.44604653 -0.85804707 -0.25455377
vn -0.37843257 0.6357874 -0.6727282
vn -3.6732978E-4 0.9999893 -0.004613843
vn -6.794432E-4 0.9999887 -0.004724113
vn 2.2349988E-4 -0.99998915 0.00464675
vn 1.4298562E-4 -0.99998915 0.004653043
vn 0.341975 -0.42570105 -0.83775395
vn 0.6487704 0.67992723 -0.3417543
vn -4.3216365E-4 0.9999889 -0.0046958476
vn -4.3216365E-4 0.9999889 -0.0046958476
vn 3.01026E-4 -0.9999893 0.0046389443
vn 3.5090666E-4 -0.9999901 0.004436532
vn 0.6487704 0.67992723 -0.3417543
vn 0.341975 -0.42570105 -0.83775395
vn 0.99999976 3.0242163E-4 6.508457E-4
vn 0.9999999 2.747118E-4 5.494306E-4
vn 0.09185618 0.93164814 -0.3515598
vn -0.6197345 0.6576079 -0.42834657
vn -0.61979383 0.65767604 -0.42815638
vn 0.091803186 0.9316708 -0.35151362
vn -0.6196704 -0.6621823 -0.42133492
vn -0.6197687 -0.6621153 -0.42129573
vn 0.7486973 -0.65986025 -0.063536905
vn 0.74879605 -0.6597255 -0.06377088
vn 0.96720624 0.0027719212 0.25397703
vn 0.96720624 0.0027719212 0.25397703
vn 0.6831121 0.7088954 0.1755709
vn -0.68472946 0.70553726 -0.18265495
vn -0.68473256 0.7055389 -0.18263657
vn 0.6831082 0.7088952 0.17558695
vn -0.68334967 -0.7086551 -0.17561676
vn -0.96736944 -0.0043028654 -0.25333336
vn 0.967373 0.004983521 0.2533075
vn 0.96737593 0.004999707 0.2532959
vn -0.0010690902 -0.9999894 0.004493103
vn -0.0010690902 -0.9999894 0.004493103
vn -0.0010793081 -0.9999896 0.00442332
vn 0.25309753 -0.00467179 -0.96742946
vn 0.25309753 -0.00467179 -0.96742946
vn 0.25309074 -0.0046492727 -0.96743137
vn 0.25308394 -0.0046267556 -0.9674333
vn -0.7033887 0.70651305 -0.07799738
vn -0.70291066 -0.70768183 -0.07143516
vn -0.44604695 -0.8580475 -0.25455153
vn -0.37843302 0.63578826 -0.6727271
vn -3.632946E-4 0.9999893 -0.004613976
vn -6.7249074E-4 0.9999887 -0.004723215
vn 2.2321957E-4 -0.99998915 0.0046467707
vn 1.3546256E-4 -0.99998915 0.004653631
vn 0.34197477 -0.42570105 -0.83775413
vn 0.648771 0.67992806 -0.3417514
vn -4.3108696E-4 0.9999889 -0.0046886005
vn -4.3108696E-4 0.9999889 -0.0046886005
vn 2.985464E-4 -0.9999893 0.004638942
vn 3.499742E-4 -0.9999901 0.00443025
vn 0.648771 0.67992806 -0.3417514
vn 0.34197477 -0.42570105 -0.83775413
vn 0.99999976 3.024213E-4 6.508467E-4
vn 0.9999999 2.747118E-4 5.494326E-4
vn -0.21381485 0.5939721 0.7755517
vn -0.2138161 0.59396774 0.7755546
vn -0.25807714 0.23897938 0.936101
vn -0.2580776 -0.2389761 0.93610173
vn -0.14395697 -0.8538702 0.50018203
vn -0.032023247 -0.99687576 0.07220224
vn 0.15080781 -0.7638959 -0.6274711
vn 0.22128735 -0.38195187 -0.8972985
vn 0.22128554 0.38195655 -0.897297
vn 0.1508012 0.7639126 -0.62745243
vn 0.066763535 0.95246047 -0.29725665
vn 0.066757806 0.9524659 -0.29724094
vn -0.96749103 0.0 -0.25290507
vn -0.96749103 0.0 -0.25290507
vn -0.96749103 0.0 -0.25290507
vn -0.96748424 -1.9893485E-5 -0.25293118
vn -0.9674933 -1.9897558E-5 -0.25289667
vn 2.1229713E-4 -0.9999901 0.004455496
vn 0.6670448 -0.33620968 -0.6648416
vn 3.833729E-4 -0.8964234 -0.4431985
vn 2.539426E-4 -0.9999908 0.00427873
vn 0.04108016 0.44453993 -0.8948165
vn 0.46822733 0.7909333 -0.39393863
vn 0.088142894 0.9960968 0.0047011552
vn 0.46822733 0.7909333 -0.39393863
vn 0.08601619 0.9962838 -0.0044492935
vn 0.9999999 2.5367067E-4 4.3337778E-4
vn 0.46822733 0.7909333 -0.39393863
vn 0.6670448 -0.33620968 -0.6648416
vn 0.9999999 2.8639068E-4 3.38652E-4
vt 0.050025698 0.9477136
vt 0.050632354 0.955035
vt 0.029591218 0.96573
vt 0.019611862 0.96434873
vt 0.029591218 0.96573
vt 0.04251719 0.981487
vt 0.04251719 0.981487
vt 0.03666175 0.98798805
vt 0.04251719 0.981487
vt 0.069458105 0.98168415
vt 0.07597635 0.9869072
vt 0.073723175 0.96427506
vt 0.08370062 0.9611902
vt 0.050632354 0.955035
vt 0.050025698 0.9477136
vt 0.050632354 0.955035
vt 0.6621047 0.8485797
vt 0.65491194 0.9390474
vt 0.6463918 0.9386777
vt 0.65685785 0.8483529
vt 0.6378842 0.93816787
vt 0.65162903 0.8480385
vt 0.6293226 0.93751657
vt 0.6463602 0.84763706
vt 0.62091273 0.9367389
vt 0.6411845 0.84715986
vt 0.61240906 0.9358126
vt 0.63594705 0.84658873
vt 0.75294554 0.8013424
vt 0.75444126 0.7978145
vt 0.75979066 0.7978768
vt 0.7616507 0.8011606
vt 0.7573992 0.8034164
vt 0.911096 0.8862943
vt 0.8626148 0.88017195
vt 0.86074656 0.9341124
vt 0.91891325 0.9350048
vt 0.91106176 0.8861534
vt 0.9185591 0.9348848
vt 0.8604143 0.933837
vt 0.8626078 0.8798763
vt 0.7619112 0.8863733
vt 0.85049254 0.8854765
vt 0.851638 0.9344591
vt 0.763009 0.93535495
vt 0.69003105 0.8819151
vt 0.66675127 0.88178414
vt 0.6671727 0.84887266
vt 0.73208827 0.882154
vt 0.7553689 0.8822836
vt 0.7557835 0.84936893
vt 0.691409 0.908013
vt 0.691409 0.92792976
vt 0.7257088 0.9275305
vt 0.7257088 0.9076139
vt 0.7257088 0.9363114
vt 0.691409 0.9367105
vt 0.691409 0.8991617
vt 0.7257088 0.8987625
vt 0.73902136 0.8984384
vt 0.7303907 0.88311875
vt 0.75351936 0.8827733
vt 0.7555184 0.9367389
vt 0.7322627 0.93717027
vt 0.67987096 0.89839786
vt 0.68866456 0.8830714
vt 0.6657584 0.88263315
vt 0.68524885 0.937269
vt 0.6619779 0.93652886
vt 0.7215478 0.8265419
vt 0.72144216 0.82274866
vt 0.745637 0.8224525
vt 0.74573976 0.8262452
vt 0.7453006 0.8101714
vt 0.72114366 0.8119322
vt 0.7446725 0.80640113
vt 0.72114366 0.8119322
vt 0.7205276 0.8081621
vt 0.71546054 0.81200266
vt 0.72114366 0.8119322
vt 0.72144216 0.82274866
vt 0.7157543 0.82281864
vt 0.6728004 0.82205474
vt 0.6728045 0.81284225
vt 0.69387126 0.8128458
vt 0.69386756 0.8220581
vt 0.69058704 0.8248805
vt 0.6732054 0.82461596
vt 0.67321026 0.8102817
vt 0.69059026 0.8100234
vt 0.70477104 0.81284755
vt 0.7047646 0.8220598
vt 0.6973616 0.8247665
vt 0.7044102 0.8245214
vt 0.70441556 0.81038845
vt 0.69736636 0.81014097
vt 0.7047646 0.8220598
vt 0.70477104 0.81284755
vt 0.708478 0.8128494
vt 0.70847213 0.8220615
vt 0.6916613 0.80030227
vt 0.70169574 0.7959709
vt 0.7058098 0.8002136
vt 0.69576865 0.80454695
vt 0.71956325 0.79347193
vt 0.718357 0.79845995
vt 0.73017955 0.79971457
vt 0.7313763 0.79472196
vt 0.74716973 0.80082667
vt 0.7412708 0.8039967
vt 0.7421461 0.8439983
vt 0.68451846 0.8442568
vt 0.6844286 0.8279664
vt 0.74197406 0.8277062
vt 0.66648066 0.8442695
vt 0.66652477 0.82797885
vt 0.7599315 0.82761383
vt 0.7601209 0.843903
vt 0.60896355 0.82778186
vt 0.66652477 0.82797885
vt 0.60884696 0.8440726
vt 0.6660861 0.8258056
vt 0.60851926 0.82674044
vt 0.6081582 0.8147657
vt 0.6657357 0.81383055
vt 0.6728004 0.82205474
vt 0.6728045 0.81284225
vt 0.69387126 0.8128458
vt 0.69386756 0.8220581
vt 0.69058704 0.8248805
vt 0.6732054 0.82461596
vt 0.67321026 0.8102817
vt 0.69059026 0.8100234
vt 0.70477104 0.81284755
vt 0.7047646 0.8220598
vt 0.6973616 0.8247665
vt 0.7044102 0.8245214
vt 0.70441556 0.81038845
vt 0.69736636 0.81014097
vt 0.7047646 0.8220598
vt 0.70477104 0.81284755
vt 0.708478 0.8128494
vt 0.70847213 0.8220615
vt 0.6621047 0.8485797
vt 0.65491194 0.9390474
vt 0.6463918 0.9386777
vt 0.65685785 0.8483529
vt 0.6378842 0.93816787
vt 0.65162903 0.8480385
vt 0.6293226 0.93751657
vt 0.6463602 0.84763706
vt 0.62091273 0.9367389
vt 0.6411845 0.84715986
vt 0.61240906 0.9358126
vt 0.63594705 0.84658873
vt 0.75294554 0.8013424
vt 0.75444126 0.7978145
vt 0.75979066 0.7978768
vt 0.7616507 0.8011606
vt 0.7573992 0.8034164
vt 0.7215478 0.8265419
vt 0.72144216 0.82274866
vt 0.745637 0.8224525
vt 0.74573976 0.8262452
vt 0.7453006 0.8101714
vt 0.72114366 0.8119322
vt 0.7446725 0.80640113
vt 0.72114366 0.8119322
vt 0.7205276 0.8081621
vt 0.71546054 0.81200266
vt 0.72114366 0.8119322
vt 0.72144216 0.82274866
vt 0.7157543 0.82281864

g artillery0
s 1
usemtl artillery0
f 3/3/3 2/2/2 1/1/1 
f 1/1/1 4/4/4 3/3/3 
f 6/6/6 5/5/5 4/4/4 
f 4/4/4 8/8/8 7/7/7 
f 10/10/10 9/9/9 8/8/8 
f 9/9/9 10/10/10 3/3/3 
f 8/8/8 11/11/11 10/10/10 
f 12/12/12 10/10/10 11/11/11 
f 3/3/3 10/10/10 12/12/12 
f 11/11/11 13/13/13 12/12/12 
f 14/14/14 12/12/12 13/13/13 
f 13/13/13 15/15/15 14/14/14 
f 12/12/12 16/16/16 3/3/3 
f 19/19/19 18/18/18 17/17/17 
f 17/17/17 20/20/20 19/19/19 
f 21/21/21 19/19/19 20/20/20 
f 20/20/20 22/22/22 21/21/21 
f 23/23/23 21/21/21 22/22/22 
f 22/22/22 24/24/24 23/23/23 
f 25/25/25 23/23/23 24/24/24 
f 24/24/24 26/26/26 25/25/25 
f 27/27/27 25/25/25 26/26/26 
f 26/26/26 28/28/28 27/27/27 
f 31/31/31 30/30/30 29/29/29 
f 29/29/29 32/32/32 31/31/31 
f 33/33/33 32/32/32 29/29/29 
f 36/36/36 35/35/35 34/34/34 
f 34/34/34 37/37/37 36/36/36 
f 40/40/40 39/39/39 38/38/38 
f 38/38/38 41/41/41 40/40/40 
f 44/44/44 43/43/43 42/42/42 
f 42/42/42 45/45/45 44/44/44 
f 48/48/48 47/47/47 46/46/46 
f 46/46/46 49/49/49 48/48/48 
f 48/48/48 49/49/49 50/50/50 
f 50/50/50 51/51/51 48/48/48 
f 54/54/54 53/53/53 52/52/52 
f 52/52/52 55/55/55 54/54/54 
f 53/53/53 54/54/54 56/56/56 
f 56/56/56 57/57/57 53/53/53 
f 55/55/55 52/52/52 58/58/58 
f 58/58/58 59/59/59 55/55/55 
f 62/62/62 61/61/61 60/60/60 
f 60/60/60 63/63/63 62/62/62 
f 64/64/64 63/63/63 60/60/60 
f 65/65/65 60/60/60 61/61/61 
f 61/61/61 66/66/66 65/65/65 
f 66/66/66 67/67/67 65/65/65 
f 68/68/68 65/65/65 67/67/67 
f 67/67/67 69/69/69 68/68/68 
f 72/72/72 71/71/71 70/70/70 
f 70/70/70 73/73/73 72/72/72 
f 71/71/71 72/72/72 74/74/74 
f 74/74/74 75/75/75 71/71/71 
f 77/77/77 74/74/74 76/76/76 
f 76/76/76 78/78/78 77/77/77 
f 81/81/81 80/80/80 79/79/79 
f 79/79/79 82/82/82 81/81/81 
f 85/85/85 84/84/84 83/83/83 
f 83/83/83 86/86/86 85/85/85 
f 87/87/87 86/86/86 83/83/83 
f 83/83/83 88/88/88 87/87/87 
f 89/89/89 84/84/84 85/85/85 
f 85/85/85 90/90/90 89/89/89 
f 91/91/91 85/85/85 86/86/86 
f 86/86/86 92/92/92 91/91/91 
f 92/92/92 86/86/86 93/93/93 
f 93/93/93 94/94/94 92/92/92 
f 85/85/85 91/91/91 95/95/95 
f 95/95/95 96/96/96 85/85/85 
f 99/99/99 98/98/98 97/97/97 
f 97/97/97 100/100/100 99/99/99 
f 103/103/103 102/102/102 101/101/101 
f 101/101/101 104/104/104 103/103/103 
f 105/105/105 102/102/102 103/103/103 
f 103/103/103 106/106/106 105/105/105 
f 105/105/105 106/106/106 107/107/107 
f 107/107/107 108/108/108 105/105/105 
f 109/109/109 108/108/108 107/107/107 
f 107/107/107 110/110/110 109/109/109 
f 113/113/113 112/112/112 111/111/111 
f 111/111/111 114/114/114 113/113/113 
f 115/115/115 112/112/112 113/113/113 
f 113/113/113 116/116/116 115/115/115 
f 117/117/117 114/114/114 111/111/111 
f 111/111/111 118/118/118 117/117/117 
f 115/115/115 120/120/120 119/119/119 
f 119/119/119 121/121/121 115/115/115 
f 124/124/124 123/123/123 122/122/122 
f 122/122/122 125/125/125 124/124/124 
f 128/128/128 127/127/127 126/126/126 
f 126/126/126 129/129/129 128/128/128 
f 130/130/130 129/129/129 126/126/126 
f 126/126/126 131/131/131 130/130/130 
f 132/132/132 127/127/127 128/128/128 
f 128/128/128 133/133/133 132/132/132 
f 134/134/134 128/128/128 129/129/129 
f 129/129/129 135/135/135 134/134/134 
f 135/135/135 129/129/129 136/136/136 
f 136/136/136 137/137/137 135/135/135 
f 128/128/128 134/134/134 138/138/138 
f 138/138/138 139/139/139 128/128/128 
f 142/142/142 141/141/141 140/140/140 
f 140/140/140 143/143/143 142/142/142 
f 146/146/146 145/145/145 144/144/144 
f 144/144/144 147/147/147 146/146/146 
f 148/148/148 146/146/146 147/147/147 
f 147/147/147 149/149/149 148/148/148 
f 150/150/150 148/148/148 149/149/149 
f 149/149/149 151/151/151 150/150/150 
f 152/152/152 150/150/150 151/151/151 
f 151/151/151 153/153/153 152/152/152 
f 154/154/154 152/152/152 153/153/153 
f 153/153/153 155/155/155 154/154/154 
f 158/158/158 157/157/157 156/156/156 
f 156/156/156 159/159/159 158/158/158 
f 160/160/160 159/159/159 156/156/156 
f 163/163/163 162/162/162 161/161/161 
f 161/161/161 164/164/164 163/163/163 
f 162/162/162 163/163/163 165/165/165 
f 165/165/165 166/166/166 162/162/162 
f 168/168/168 165/165/165 167/167/167 
f 167/167/167 169/169/169 168/168/168 
f 172/172/172 171/171/171 170/170/170 
f 170/170/170 173/173/173 172/172/172 

