# Created by DisUnity v0.3.4
v -3.9315355 1.3094194 -5.2624874
v 3.4195247E-7 1.2898493 -5.2330933
v -1.51609775E-5 1.2911857 7.844264
v -3.9586031 1.3107811 7.844264
v -3.533779E-6 -0.65055656 -8.871552
v -5.6418104 -0.92253923 -8.412114
v -7.4095133E-6 -0.15932544 11.153853
v -4.950748 0.18312716 10.392736
v -5.593434 -4.0861597 -9.180966
v -3.53378E-6 -4.1140285 -9.607874
v -3.533779E-6 -0.65055656 -8.871552
v -5.6418104 -0.92253923 -8.412114
v -3.9586031 1.3107811 7.844264
v -4.950748 0.18312716 10.392736
v -6.1339045 -0.9185404 8.9172535
v -3.9315355 1.3094194 -5.2624874
v -6.1339045 -0.9197789 -3.8749123
v -5.6418104 -0.92253923 -8.412114
v -3.9315355 1.3094194 -5.2624874
v -6.1339045 -0.9197789 -3.8749123
v -6.1339045 -0.9185404 8.9172535
v -6.1339045 -4.0817227 8.90066
v -6.133901 -4.0830564 -3.8915486
v -5.593434 -4.0861597 -9.180966
v -5.6418104 -0.92253923 -8.412114
v -4.950748 0.18312716 10.392736
v -7.4095133E-6 -0.15932544 11.153853
v -7.4095133E-6 -4.1119184 11.153875
v -4.950748 -4.087553 10.392715
v -4.950748 -4.087553 10.392715
v -6.1339045 -4.0817227 8.90066
v -6.1339045 -0.9185404 8.9172535
v -4.950748 0.18312716 10.392736
v 3.9315162 1.3094221 -5.2624874
v 3.9585881 1.3107811 7.844264
v -1.51609775E-5 1.2911857 7.844264
v 3.4195247E-7 1.2898493 -5.2330933
v -3.533779E-6 -0.65055656 -8.871552
v 5.6417956 -0.92253923 -8.412114
v -7.4095133E-6 -0.15932544 11.153853
v 4.950737 0.18312849 10.392715
v 5.5934196 -4.0861597 -9.180966
v 5.6417956 -0.92253923 -8.412114
v -3.533779E-6 -0.65055656 -8.871552
v -3.53378E-6 -4.1140285 -9.607874
v 4.950737 0.18312849 10.392715
v 3.9585881 1.3107811 7.844264
v 6.1338897 -0.9185378 8.917254
v 3.9315162 1.3094221 -5.2624874
v 6.133901 -0.9197828 -3.8749123
v 5.6417956 -0.92253923 -8.412114
v 3.9315162 1.3094221 -5.2624874
v 6.133901 -0.9197828 -3.8749123
v 6.133906 -4.083058 -3.8915484
v 6.133898 -4.0817227 8.9006605
v 6.1338897 -0.9185378 8.917254
v 5.5934196 -4.0861597 -9.180966
v 5.6417956 -0.92253923 -8.412114
v 4.950737 0.18312849 10.392715
v 4.950737 -4.087552 10.392715
v -7.4095133E-6 -4.1119184 11.153875
v -7.4095133E-6 -0.15932544 11.153853
v 4.950737 -4.087552 10.392715
v 4.950737 0.18312849 10.392715
v 6.1338897 -0.9185378 8.917254
v 6.133898 -4.0817227 8.9006605
v -7.287451 0.9121385 4.4220986
v -4.3184032 0.91214246 4.4220986
v -4.3184032 0.91214246 6.7543626
v -7.2874546 0.9121385 6.7543626
v -7.551566 0.64800245 4.4220986
v -7.5515704 0.64799976 6.7543626
v -7.5515704 0.64799976 6.7543626
v -7.5515704 -0.30831322 6.7543626
v -7.551566 -0.30831322 4.422077
v -7.2874427 -0.5724837 4.4220986
v -7.5515704 -0.30831322 6.7543626
v -7.287447 -0.5724811 6.7543626
v -7.2874546 0.9121385 6.7543626
v -4.3184032 0.91214246 6.7543626
v -4.318395 -0.572485 6.7543836
v -7.5515704 -0.30831322 6.7543626
v -7.5515704 0.64799976 6.7543626
v -7.287447 -0.5724811 6.7543626
v -4.3184032 0.91214246 4.4220986
v -7.287451 0.9121385 4.4220986
v -7.551566 0.64800245 4.4220986
v -7.2874427 -0.5724837 4.4220986
v -4.3184032 -0.5724811 4.4220986
v -7.551566 -0.30831322 4.422077
v -4.6479917 -0.56572324 -1.9470062
v -4.6479797 1.1781077 -1.9470062
v -4.647988 1.178109 -2.5105007
v -4.6479764 -0.56572056 -2.5105007
v -5.135997 -0.56572324 -1.6653544
v -5.135993 1.1781396 -1.6653544
v -5.135989 1.1781396 -2.7921102
v -5.1360006 -0.56572056 -2.7921102
v -4.647988 1.178109 -2.5105007
v -4.6479797 1.1781077 -1.9470062
v -5.135993 1.1781396 -1.6653544
v -5.135989 1.1781396 -2.7921102
v -5.6240053 -0.56572056 -1.9470062
v -5.62399 -0.5657219 -2.5104797
v -5.623994 1.1781077 -2.5105007
v -5.623994 1.178109 -1.9469851
v -5.135997 -0.56572324 -1.6653544
v -5.135993 1.1781396 -1.6653544
v -5.135989 1.1781396 -2.7921102
v -5.1360006 -0.56572056 -2.7921102
v -5.623994 1.1781077 -2.5105007
v -5.135989 1.1781396 -2.7921102
v -5.135993 1.1781396 -1.6653544
v -5.623994 1.178109 -1.9469851
v -1.7420948 3.3018217 -29.59259
v -2.1064022 3.504855 -29.537403
v -2.3137186 -2.3650434 -8.398699
v -1.7420945 -2.6836317 -8.485314
v -2.31373 -1.727867 -8.225512
v -2.1064062 3.9109945 -29.427032
v -1.7420982 -1.4092696 -8.138897
v -1.742091 4.114032 -29.371824
v -2.1064062 3.9109945 -29.427032
v -2.1064022 3.504855 -29.537403
v -1.7420948 3.3018217 -29.59259
v -1.742091 4.114032 -29.371824
v -1.7420948 3.3018217 -29.59259
v -1.7420945 -2.6836317 -8.485314
v -1.170397 -2.3650434 -8.398699
v -1.377776 3.5048578 -29.537403
v -1.1703932 -1.727867 -8.225512
v -1.3777798 3.9109905 -29.42701
v -1.7420982 -1.4092696 -8.138897
v -1.742091 4.114032 -29.371824
v -1.3777798 3.9109905 -29.42701
v -1.742091 4.114032 -29.371824
v -1.7420948 3.3018217 -29.59259
v -1.377776 3.5048578 -29.537403
v 7.28744 0.91214246 4.4220986
v 7.28744 0.91213715 6.754384
v 4.318388 0.9121385 6.7543626
v 4.318388 0.9121385 4.4220986
v 7.5515714 0.64799845 4.4220986
v 7.5515633 0.64799976 6.7543626
v 7.5515714 -0.30831322 4.4220986
v 7.5515633 -0.30831322 6.7543626
v 7.5515633 0.64799976 6.7543626
v 7.5515633 -0.30831322 6.7543626
v 7.28744 -0.5724811 4.4220986
v 7.28744 -0.5724837 6.7543626
v 7.5515633 -0.30831322 6.7543626
v 7.28744 -0.5724837 6.7543626
v 4.3183956 -0.5724811 6.7543626
v 7.28744 0.91213715 6.754384
v 7.5515633 0.64799976 6.7543626
v 4.318388 0.9121385 6.7543626
v 4.318388 0.9121385 4.4220986
v 4.318388 -0.5724811 4.4220986
v 7.28744 -0.5724811 4.4220986
v 7.5515714 0.64799845 4.4220986
v 7.28744 0.91214246 4.4220986
v 7.5515714 -0.30831322 4.4220986
v 4.648042 -0.56572056 -1.9470061
v 4.6480346 -0.56572056 -2.5105007
v 4.6480346 1.178109 -2.5104795
v 4.648027 1.1781117 -1.9470061
v 5.136043 -0.56572324 -1.6653543
v 5.136051 1.1781396 -1.6653543
v 5.1360354 1.1781422 -2.7921102
v 5.136043 -0.56572056 -2.792089
v 4.6480346 1.178109 -2.5104795
v 5.1360354 1.1781422 -2.7921102
v 5.136051 1.1781396 -1.6653543
v 4.648027 1.1781117 -1.9470061
v 5.6240525 -0.56572324 -1.9470061
v 5.6240525 1.1781077 -1.9470061
v 5.6240606 1.178109 -2.5104795
v 5.6240525 -0.56572056 -2.5105007
v 5.136043 -0.56572324 -1.6653543
v 5.136051 1.1781396 -1.6653543
v 5.1360354 1.1781422 -2.7921102
v 5.136043 -0.56572056 -2.792089
v 5.6240606 1.178109 -2.5104795
v 5.6240525 1.1781077 -1.9470061
v 5.136051 1.1781396 -1.6653543
v 5.1360354 1.1781422 -2.7921102
v 1.7420805 3.3018217 -29.59259
v 1.7420883 -2.683633 -8.485292
v 2.3137743 -2.3650434 -8.398699
v 2.1064034 3.504855 -29.537403
v 2.3137743 -1.727867 -8.225512
v 2.1063993 3.9109879 -29.42701
v 1.7420883 -1.4092722 -8.138897
v 1.7420921 4.1140304 -29.371845
v 2.1063993 3.9109879 -29.42701
v 1.7420921 4.1140304 -29.371845
v 1.7420805 3.3018217 -29.59259
v 2.1064034 3.504855 -29.537403
v 1.7420805 3.3018217 -29.59259
v 1.3777692 3.504855 -29.537403
v 1.1704525 -2.3650434 -8.398699
v 1.7420883 -2.683633 -8.485292
v 1.1704408 -1.7278618 -8.225512
v 1.3777654 3.9109893 -29.427032
v 1.7420883 -1.4092722 -8.138897
v 1.7420921 4.1140304 -29.371845
v 1.3777654 3.9109893 -29.427032
v 1.3777692 3.504855 -29.537403
v 1.7420805 3.3018217 -29.59259
v 1.7420921 4.1140304 -29.371845
vn -0.017326064 0.9644666 -0.2636363
vn -0.0 0.9701334 -0.24257192
vn -0.0 0.9906658 0.13631295
vn 0.003558506 0.96172875 0.27398008
vn -0.0 0.86061174 -0.5092616
vn -0.08460135 0.8340767 -0.5451227
vn -0.0 0.91511667 0.40318915
vn 9.883473E-4 0.91433346 0.40496108
vn -0.08177575 0.22066909 -0.9719145
vn -0.0 0.20794894 -0.9781397
vn -0.0 0.22141063 -0.9751806
vn -0.09011057 0.23389325 -0.9680775
vn -0.7059834 0.707204 0.038079076
vn -0.7059834 0.707204 0.038079076
vn -0.71128964 0.7027939 0.01215545
vn -0.7160974 0.6979986 -0.0015513744
vn -0.72315747 0.6895206 -0.0400564
vn -0.73353535 0.67493045 -0.07996812
vn -0.73353535 0.67493045 -0.07996812
vn -0.9986198 0.0028879696 -0.052441787
vn -1.0 0.0 0.0
vn -1.0 0.0 0.0
vn -0.9987042 2.6660107E-4 -0.050891083
vn -0.9941089 0.0110033145 -0.10782539
vn -0.9941089 0.0110033145 -0.10782539
vn -0.15195242 0.0 0.98838776
vn -0.0 0.0 1.0
vn -0.0 0.0 1.0
vn -0.15196109 0.0 0.98838645
vn -0.7835504 -0.0032594185 0.6213197
vn -0.7835504 -0.0032594185 0.6213197
vn -0.78185546 -0.0016312691 0.6234576
vn -0.7801527 0.0 0.62558913
vn 0.017325765 0.9644666 -0.26363632
vn -0.0035578825 0.9617286 0.2739808
vn -0.0 0.9906658 0.13631295
vn -0.0 0.9701334 -0.24257192
vn -0.0 0.86061174 -0.5092616
vn 0.084601484 0.83407646 -0.545123
vn -0.0 0.91511667 0.40318915
vn -9.865295E-4 0.91433257 0.4049629
vn 0.08177587 0.22066905 -0.9719145
vn 0.090110704 0.23389322 -0.9680775
vn -0.0 0.22141063 -0.9751806
vn -0.0 0.20794894 -0.9781397
vn 0.7059832 0.7072043 0.03807808
vn 0.7059832 0.7072043 0.03807808
vn 0.7112889 0.7027947 0.012155179
vn 0.71139425 0.70279324 -6.777218E-5
vn 0.72315603 0.6895221 -0.040056802
vn 0.73353404 0.6749316 -0.07996918
vn 0.73353404 0.6749316 -0.07996918
vn 0.9986198 0.002890007 -0.052442834
vn 0.9987041 2.6912134E-4 -0.050892416
vn 1.0 0.0 0.0
vn 1.0 0.0 0.0
vn 0.9948197 5.360829E-4 -0.10165355
vn 0.9941087 0.011003909 -0.10782779
vn 0.1519609 0.0 0.98838645
vn 0.1519609 0.0 0.98838645
vn -0.0 0.0 1.0
vn -0.0 0.0 1.0
vn 0.7801504 0.0 0.6255919
vn 0.7801504 0.0 0.6255919
vn 0.7818538 -0.0016287364 0.6234597
vn 0.78354925 -0.0032574555 0.6213211
vn -0.25273716 0.9675349 0.0
vn -0.0 1.0 0.0
vn -0.0 1.0 0.0
vn -0.50547445 0.8628416 0.0
vn -0.92388743 0.3826643 0.0
vn -0.70713776 0.7070758 0.0
vn -1.0 0.0 0.0
vn -1.0 0.0 0.0
vn -0.9238966 -0.38264233 0.0
vn -0.7071662 -0.70704734 0.0
vn -0.7071662 -0.70704734 0.0
vn -0.7071662 -0.70704734 0.0
vn -0.0 1.4274804E-5 1.0
vn -0.0 1.4274804E-5 1.0
vn -0.0 0.0 1.0
vn -0.0 0.0 1.0
vn -0.0 0.0 1.0
vn -7.1498266E-6 -7.1367026E-6 1.0
vn -0.0 0.0 -1.0
vn -0.0 0.0 -1.0
vn -0.0 0.0 -1.0
vn 3.4146226E-5 7.3869496E-6 -1.0
vn -0.0 0.0 -1.0
vn 1.0241482E-4 2.2160848E-5 -1.0
vn 0.94489545 0.0 0.32737213
vn 0.7558595 0.0 0.6547339
vn 0.9448929 0.0 -0.32737967
vn 0.75583 0.0 -0.65476793
vn -0.0 0.0 1.0
vn 1.0878654E-5 0.0 1.0
vn -1.5256908E-5 0.0 -1.0
vn -3.185059E-5 0.0 -1.0
vn 6.6496024E-5 1.0 0.0
vn 6.6496024E-5 1.0 0.0
vn 6.6496024E-5 1.0 0.0
vn 6.2427156E-5 1.0 0.0
vn -0.94490004 0.0 0.3273591
vn -0.75583404 0.0 -0.6547633
vn -0.9448879 0.0 -0.3273941
vn -0.7558511 0.0 0.6547435
vn -0.0 0.0 1.0
vn 1.0878654E-5 0.0 1.0
vn -1.5256908E-5 0.0 -1.0
vn -3.185059E-5 0.0 -1.0
vn -6.514123E-5 1.0 0.0
vn -6.514123E-5 1.0 0.0
vn -6.514123E-5 1.0 0.0
vn -6.1070845E-5 1.0 0.0
vn -1.5724368E-5 -0.9620663 -0.27281597
vn -0.9448666 -0.3130105 -0.096185096
vn -0.75595284 -0.6288101 -0.18202522
vn -2.7700788E-5 -0.9620663 -0.272816
vn -0.94487596 0.31860524 0.07549821
vn -0.7559615 0.634422 0.1613414
vn -1.34076945E-5 0.9677921 0.25175077
vn -0.0 0.9677921 0.25175083
vn -2.6234908E-5 0.26224726 -0.9650007
vn -2.6234908E-5 0.26224726 -0.9650007
vn -2.6234908E-5 0.26224726 -0.9650007
vn 5.3069314E-5 0.26229143 -0.9649887
vn -1.5724368E-5 -0.9620663 -0.27281597
vn -2.7700788E-5 -0.9620663 -0.272816
vn 0.75594014 -0.62882364 -0.18203081
vn 0.9448694 -0.3130018 -0.09618563
vn 0.94486725 0.31863043 0.07550227
vn 0.7559454 0.6344402 0.16134492
vn -1.34076945E-5 0.9677921 0.25175077
vn -0.0 0.9677921 0.25175083
vn -0.0 0.26229146 -0.9649887
vn -0.0 0.26229146 -0.9649887
vn -0.0 0.26229146 -0.9649887
vn -0.0 0.2622982 -0.9649869
vn 0.25273153 0.96753645 0.0
vn 0.50546455 0.8628473 0.0
vn -0.0 1.0 0.0
vn -0.0 1.0 0.0
vn 0.9238843 0.38267183 0.0
vn 0.70712537 0.7070881 0.0
vn 0.92389274 -0.3826515 0.0
vn 1.0 0.0 0.0
vn 1.0 0.0 0.0
vn 0.7071556 -0.7070579 0.0
vn 0.7071556 -0.7070579 0.0
vn 0.70716965 -0.7070438 0.0
vn 2.7198827E-5 0.0 1.0
vn -0.0 0.0 1.0
vn -0.0 0.0 1.0
vn 8.0226186E-5 0.0 1.0
vn 8.0226186E-5 0.0 1.0
vn -7.149816E-6 0.0 1.0
vn -0.0 0.0 -1.0
vn -0.0 0.0 -1.0
vn -0.0 0.0 -1.0
vn -0.0 0.0 -1.0
vn -0.0 0.0 -1.0
vn -0.0 0.0 -1.0
vn -0.94489735 0.0 0.3273667
vn -0.75583076 0.0 -0.6547671
vn -0.9448944 0.0 -0.32737514
vn -0.75585794 0.0 0.65473574
vn -0.0 0.0 1.0
vn 1.0121711E-5 0.0 1.0
vn -0.0 0.0 -1.0
vn -0.0 -1.2154317E-5 -1.0
vn -6.649841E-5 1.0 0.0
vn -6.649841E-5 1.0 0.0
vn -6.649841E-5 1.0 0.0
vn -5.428243E-5 1.0 0.0
vn 0.94489515 0.0 0.32737336
vn 0.7558557 0.0 0.65473825
vn 0.9448941 0.0 -0.32737634
vn 0.755823 0.0 -0.65477604
vn -0.0 0.0 1.0
vn 1.0121711E-5 0.0 1.0
vn -0.0 0.0 -1.0
vn -0.0 -1.2154317E-5 -1.0
vn 6.6498746E-5 1.0 0.0
vn 6.6498746E-5 1.0 0.0
vn 6.6498746E-5 1.0 0.0
vn 6.649621E-5 1.0 0.0
vn -1.2747428E-5 -0.9620663 -0.2728157
vn -1.8752833E-5 -0.9620663 -0.2728158
vn 0.75593954 -0.62882453 -0.1820308
vn 0.94486916 -0.3130027 -0.096185386
vn 0.94486755 0.31862947 0.075502455
vn 0.7559468 0.6344386 0.1613446
vn -0.0 0.9677921 0.25175062
vn 7.155312E-6 0.9677921 0.25175062
vn 4.9238584E-5 0.26226842 -0.964995
vn 4.9238584E-5 0.26226842 -0.964995
vn 4.9238584E-5 0.26226842 -0.964995
vn -0.0 0.26229814 -0.9649869
vn -1.2747428E-5 -0.9620663 -0.2728157
vn -0.94486606 -0.31301168 -0.096185416
vn -0.7559482 -0.62881535 -0.18202655
vn -1.8752833E-5 -0.9620663 -0.2728158
vn -0.9448739 0.3186111 0.0754996
vn -0.75595236 0.63443226 0.16134395
vn -0.0 0.9677921 0.25175062
vn 7.155312E-6 0.9677921 0.25175062
vn -2.4266466E-5 0.2622505 -0.9649999
vn -2.4266466E-5 0.2622505 -0.9649999
vn -2.4266466E-5 0.2622505 -0.9649999
vn 7.885672E-6 0.26226842 -0.964995
vt 0.07484463 0.70338523
vt 0.10218372 0.70294464
vt 0.10219516 0.88540834
vt 0.07464449 0.8853866
vt 0.10145897 0.6452154
vt 0.062135953 0.65090895
vt 0.102225296 0.935717
vt 0.06776295 0.92418265
vt 0.060203772 0.60575664
vt 0.09895017 0.59618974
vt 0.10145897 0.6452154
vt 0.062135953 0.65090895
vt 0.07183708 0.7030898
vt 0.05935443 0.66688883
vt 0.049941067 0.69013685
vt 0.0716661 0.8892453
vt 0.050037343 0.86874855
vt 0.050465498 0.9325829
vt 0.0716661 0.8892453
vt 0.050037343 0.86874855
vt 0.049941067 0.69013685
vt 0.028000498 0.68921906
vt 0.02793515 0.8691006
vt 0.0279837 0.9436225
vt 0.050465498 0.9325829
vt 0.06776295 0.92418265
vt 0.102225296 0.935717
vt 0.099546045 0.99047285
vt 0.0648681 0.98334455
vt 0.02891977 0.66217095
vt 0.028000498 0.68921906
vt 0.049941067 0.69013685
vt 0.05935443 0.66688883
vt 0.07484463 0.70338523
vt 0.07464449 0.8853866
vt 0.10219516 0.88540834
vt 0.10218372 0.70294464
vt 0.10145897 0.6452154
vt 0.062135953 0.65090895
vt 0.102225296 0.935717
vt 0.06776295 0.92418265
vt 0.060203772 0.60575664
vt 0.062135953 0.65090895
vt 0.10145897 0.6452154
vt 0.09895017 0.59618974
vt 0.05935443 0.66688883
vt 0.07183708 0.7030898
vt 0.049941067 0.69013685
vt 0.0716661 0.8892453
vt 0.050037343 0.86874855
vt 0.050465498 0.9325829
vt 0.0716661 0.8892453
vt 0.050037343 0.86874855
vt 0.02793515 0.8691006
vt 0.028000498 0.68921906
vt 0.049941067 0.69013685
vt 0.0279837 0.9436225
vt 0.050465498 0.9325829
vt 0.06776295 0.92418265
vt 0.0648681 0.98334455
vt 0.099546045 0.99047285
vt 0.102225296 0.935717
vt 0.02891977 0.66217095
vt 0.05935443 0.66688883
vt 0.049941067 0.69013685
vt 0.028000498 0.68921906
vt 0.033622403 0.97075194
vt 0.016333092 0.97075194
vt 0.016333092 0.99791986
vt 0.033622403 0.99791986
vt 0.035798687 0.97075194
vt 0.035798687 0.99791986
vt 0.035798687 0.99791986
vt 0.0413674 0.99791986
vt 0.0413674 0.9707661
vt 0.043543685 0.9707661
vt 0.0413674 0.99791986
vt 0.043543685 0.99791986
vt 0.03604761 0.9497101
vt 0.01655357 0.9497101
vt 0.01655357 0.9692112
vt 0.037782956 0.96574056
vt 0.037782956 0.95318073
vt 0.03604761 0.9692112
vt 0.01655357 0.9497101
vt 0.03604761 0.9497101
vt 0.037782956 0.95318073
vt 0.03604761 0.9692112
vt 0.01655357 0.9692112
vt 0.037782956 0.96574056
vt 0.04534398 0.9645822
vt 0.04534398 0.9441706
vt 0.04863684 0.9441706
vt 0.04863684 0.9645822
vt 0.042044 0.9645822
vt 0.042044 0.9441706
vt 0.051929697 0.9441706
vt 0.051929697 0.9645822
vt 0.05174092 0.9879501
vt 0.04989179 0.99436516
vt 0.046193544 0.99436516
vt 0.04989179 0.98154926
vt 0.04534398 0.9645822
vt 0.04863684 0.9645822
vt 0.04863684 0.9441706
vt 0.04534398 0.9441706
vt 0.042044 0.9645822
vt 0.042044 0.9441706
vt 0.051929697 0.9441706
vt 0.051929697 0.9645822
vt 0.05174092 0.9879501
vt 0.04989179 0.98154926
vt 0.046193544 0.99436516
vt 0.04989179 0.99436516
vt 0.11798811 0.6237835
vt 0.11448738 0.6238565
vt 0.11548106 0.9886998
vt 0.12096925 0.98859036
vt 0.109992966 0.988718
vt 0.110986575 0.6238565
vt 0.10450478 0.98859036
vt 0.107485905 0.6237835
vt 0.115362585 0.61298954
vt 0.109810546 0.61298954
vt 0.10703009 0.62259835
vt 0.11813398 0.62259835
vt 0.11798811 0.6237835
vt 0.12096925 0.98859036
vt 0.11548106 0.9886998
vt 0.11448738 0.6238565
vt 0.109992966 0.988718
vt 0.110986575 0.6238565
vt 0.10450478 0.98859036
vt 0.107485905 0.6237835
vt 0.115362585 0.61298954
vt 0.11813398 0.62259835
vt 0.10703009 0.62259835
vt 0.109810546 0.61298954
vt 0.033622403 0.97075194
vt 0.033622403 0.99791986
vt 0.016333092 0.99791986
vt 0.016333092 0.97075194
vt 0.035798687 0.97075194
vt 0.035798687 0.99791986
vt 0.0413674 0.9707661
vt 0.0413674 0.99791986
vt 0.035798687 0.99791986
vt 0.0413674 0.99791986
vt 0.043543685 0.9707661
vt 0.043543685 0.99791986
vt 0.037782956 0.96574056
vt 0.03604761 0.9692112
vt 0.01655357 0.9692112
vt 0.03604761 0.9497101
vt 0.037782956 0.95318073
vt 0.01655357 0.9497101
vt 0.01655357 0.9497101
vt 0.01655357 0.9692112
vt 0.03604761 0.9692112
vt 0.037782956 0.95318073
vt 0.03604761 0.9497101
vt 0.037782956 0.96574056
vt 0.04534398 0.9645822
vt 0.04863684 0.9645822
vt 0.04863684 0.9441706
vt 0.04534398 0.9441706
vt 0.042044 0.9645822
vt 0.042044 0.9441706
vt 0.051929697 0.9441706
vt 0.051929697 0.9645822
vt 0.05174092 0.9879501
vt 0.04989179 0.98154926
vt 0.046193544 0.99436516
vt 0.04989179 0.99436516
vt 0.04534398 0.9645822
vt 0.04534398 0.9441706
vt 0.04863684 0.9441706
vt 0.04863684 0.9645822
vt 0.042044 0.9645822
vt 0.042044 0.9441706
vt 0.051929697 0.9441706
vt 0.051929697 0.9645822
vt 0.05174092 0.9879501
vt 0.04989179 0.99436516
vt 0.046193544 0.99436516
vt 0.04989179 0.98154926
vt 0.11798811 0.6237835
vt 0.12096925 0.98859036
vt 0.11548106 0.9886998
vt 0.11448738 0.6238565
vt 0.109992966 0.988718
vt 0.110986575 0.6238565
vt 0.10450478 0.98859036
vt 0.107485905 0.6237835
vt 0.115362585 0.61298954
vt 0.11813398 0.62259835
vt 0.10703009 0.62259835
vt 0.109810546 0.61298954
vt 0.11798811 0.6237835
vt 0.11448738 0.6238565
vt 0.11548106 0.9886998
vt 0.12096925 0.98859036
vt 0.109992966 0.988718
vt 0.110986575 0.6238565
vt 0.10450478 0.98859036
vt 0.107485905 0.6237835
vt 0.115362585 0.61298954
vt 0.109810546 0.61298954
vt 0.10703009 0.62259835
vt 0.11813398 0.62259835

g artillery2
s 1
usemtl artillery2
f 3/3/3 2/2/2 1/1/1 
f 1/1/1 4/4/4 3/3/3 
f 1/1/1 2/2/2 5/5/5 
f 5/5/5 6/6/6 1/1/1 
f 7/7/7 3/3/3 4/4/4 
f 4/4/4 8/8/8 7/7/7 
f 11/11/11 10/10/10 9/9/9 
f 9/9/9 12/12/12 11/11/11 
f 15/15/15 14/14/14 13/13/13 
f 15/15/15 13/13/13 16/16/16 
f 16/16/16 17/17/17 15/15/15 
f 19/19/19 18/18/18 17/17/17 
f 22/22/22 21/21/21 20/20/20 
f 20/20/20 23/23/23 22/22/22 
f 24/24/24 23/23/23 20/20/20 
f 20/20/20 25/25/25 24/24/24 
f 28/28/28 27/27/27 26/26/26 
f 26/26/26 29/29/29 28/28/28 
f 32/32/32 31/31/31 30/30/30 
f 30/30/30 33/33/33 32/32/32 
f 36/36/36 35/35/35 34/34/34 
f 34/34/34 37/37/37 36/36/36 
f 38/38/38 37/37/37 34/34/34 
f 34/34/34 39/39/39 38/38/38 
f 35/35/35 36/36/36 40/40/40 
f 40/40/40 41/41/41 35/35/35 
f 44/44/44 43/43/43 42/42/42 
f 42/42/42 45/45/45 44/44/44 
f 48/48/48 47/47/47 46/46/46 
f 49/49/49 47/47/47 48/48/48 
f 48/48/48 50/50/50 49/49/49 
f 52/52/52 50/50/50 51/51/51 
f 55/55/55 54/54/54 53/53/53 
f 53/53/53 56/56/56 55/55/55 
f 53/53/53 54/54/54 57/57/57 
f 57/57/57 58/58/58 53/53/53 
f 61/61/61 60/60/60 59/59/59 
f 59/59/59 62/62/62 61/61/61 
f 65/65/65 64/64/64 63/63/63 
f 63/63/63 66/66/66 65/65/65 
f 69/69/69 68/68/68 67/67/67 
f 67/67/67 70/70/70 69/69/69 
f 70/70/70 67/67/67 71/71/71 
f 71/71/71 72/72/72 70/70/70 
f 74/74/74 73/73/73 71/71/71 
f 71/71/71 75/75/75 74/74/74 
f 77/77/77 75/75/75 76/76/76 
f 76/76/76 78/78/78 77/77/77 
f 81/81/81 80/80/80 79/79/79 
f 81/81/81 79/79/79 82/82/82 
f 79/79/79 83/83/83 82/82/82 
f 81/81/81 82/82/82 84/84/84 
f 87/87/87 86/86/86 85/85/85 
f 87/87/87 85/85/85 88/88/88 
f 85/85/85 89/89/89 88/88/88 
f 90/90/90 87/87/87 88/88/88 
f 93/93/93 92/92/92 91/91/91 
f 91/91/91 94/94/94 93/93/93 
f 95/95/95 91/91/91 92/92/92 
f 92/92/92 96/96/96 95/95/95 
f 97/97/97 93/93/93 94/94/94 
f 94/94/94 98/98/98 97/97/97 
f 101/101/101 100/100/100 99/99/99 
f 99/99/99 102/102/102 101/101/101 
f 105/105/105 104/104/104 103/103/103 
f 103/103/103 106/106/106 105/105/105 
f 106/106/106 103/103/103 107/107/107 
f 107/107/107 108/108/108 106/106/106 
f 104/104/104 105/105/105 109/109/109 
f 109/109/109 110/110/110 104/104/104 
f 113/113/113 112/112/112 111/111/111 
f 111/111/111 114/114/114 113/113/113 
f 117/117/117 116/116/116 115/115/115 
f 115/115/115 118/118/118 117/117/117 
f 116/116/116 117/117/117 119/119/119 
f 119/119/119 120/120/120 116/116/116 
f 120/120/120 119/119/119 121/121/121 
f 121/121/121 122/122/122 120/120/120 
f 125/125/125 124/124/124 123/123/123 
f 123/123/123 126/126/126 125/125/125 
f 129/129/129 128/128/128 127/127/127 
f 127/127/127 130/130/130 129/129/129 
f 131/131/131 129/129/129 130/130/130 
f 130/130/130 132/132/132 131/131/131 
f 133/133/133 131/131/131 132/132/132 
f 132/132/132 134/134/134 133/133/133 
f 137/137/137 136/136/136 135/135/135 
f 135/135/135 138/138/138 137/137/137 
f 141/141/141 140/140/140 139/139/139 
f 139/139/139 142/142/142 141/141/141 
f 143/143/143 139/139/139 140/140/140 
f 140/140/140 144/144/144 143/143/143 
f 146/146/146 145/145/145 143/143/143 
f 143/143/143 147/147/147 146/146/146 
f 149/149/149 145/145/145 148/148/148 
f 148/148/148 150/150/150 149/149/149 
f 153/153/153 152/152/152 151/151/151 
f 153/153/153 151/151/151 154/154/154 
f 151/151/151 155/155/155 154/154/154 
f 153/153/153 154/154/154 156/156/156 
f 159/159/159 158/158/158 157/157/157 
f 159/159/159 157/157/157 160/160/160 
f 157/157/157 161/161/161 160/160/160 
f 162/162/162 159/159/159 160/160/160 
f 165/165/165 164/164/164 163/163/163 
f 163/163/163 166/166/166 165/165/165 
f 166/166/166 163/163/163 167/167/167 
f 167/167/167 168/168/168 166/166/166 
f 164/164/164 165/165/165 169/169/169 
f 169/169/169 170/170/170 164/164/164 
f 173/173/173 172/172/172 171/171/171 
f 171/171/171 174/174/174 173/173/173 
f 177/177/177 176/176/176 175/175/175 
f 175/175/175 178/178/178 177/177/177 
f 179/179/179 175/175/175 176/176/176 
f 176/176/176 180/180/180 179/179/179 
f 181/181/181 177/177/177 178/178/178 
f 178/178/178 182/182/182 181/181/181 
f 185/185/185 184/184/184 183/183/183 
f 183/183/183 186/186/186 185/185/185 
f 189/189/189 188/188/188 187/187/187 
f 187/187/187 190/190/190 189/189/189 
f 191/191/191 189/189/189 190/190/190 
f 190/190/190 192/192/192 191/191/191 
f 193/193/193 191/191/191 192/192/192 
f 192/192/192 194/194/194 193/193/193 
f 197/197/197 196/196/196 195/195/195 
f 195/195/195 198/198/198 197/197/197 
f 201/201/201 200/200/200 199/199/199 
f 199/199/199 202/202/202 201/201/201 
f 200/200/200 201/201/201 203/203/203 
f 203/203/203 204/204/204 200/200/200 
f 204/204/204 203/203/203 205/205/205 
f 205/205/205 206/206/206 204/204/204 
f 209/209/209 208/208/208 207/207/207 
f 207/207/207 210/210/210 209/209/209 

