# Created by DisUnity v0.3.4
v -64.48348 -19.124891 31.342442
v -44.122337 4.925539 59.65075
v -44.045975 -19.124805 80.19086
v -2.6114606E-6 -19.12507 -79.15977
v -2.611407E-6 19.12505 -68.36411
v -50.797714 -19.125053 -66.75328
v -39.162346 19.125072 -55.957817
v -50.67776 8.0605545 31.29235
v -64.48348 -19.124891 31.342442
v -64.48348 -19.124891 31.342442
v -50.797714 -19.125053 -66.75328
v -39.162346 19.125072 -55.957817
v -2.612113E-6 13.328448 53.314114
v -39.162346 19.125072 -55.957817
v -2.611407E-6 19.12505 -68.36411
v -38.284355 13.328448 53.42448
v -44.045975 -19.124805 80.19086
v -44.122337 4.925539 59.65075
v -2.6118403E-6 -19.124805 80.056816
v -2.612113E-6 13.328448 53.314114
v -38.284355 13.328448 53.42448
v -50.67776 8.0605545 31.29235
v -39.162346 19.125072 -55.957817
v -44.122337 4.925539 59.65075
v -50.67776 8.0605545 31.29235
v -38.284355 13.328448 53.42448
v -44.122337 4.925539 59.65075
v -38.284355 13.328448 53.42448
v -2.612113E-6 13.328448 53.314114
v -2.611407E-6 19.12505 -68.36411
v -39.162346 19.125072 -55.957817
v -50.797714 -19.125053 -66.75328
v -64.48348 -19.124891 31.342442
v -50.67776 8.0605545 31.29235
v -44.122337 4.925539 59.65075
v -45.121193 6.838989 -28.362263
v -74.674774 6.8389773 -22.57141
v -69.84499 6.838989 -56.820023
v -41.778664 6.838989 -50.956596
v -74.674774 6.8389773 -22.57141
v -74.67479 -3.6936445 -22.57141
v -69.84499 -3.6936388 -56.820023
v -69.84499 6.838989 -56.820023
v -45.121193 6.838989 -28.362263
v -45.121193 -3.6936445 -28.362263
v -74.67479 -3.6936445 -22.57141
v -74.674774 6.8389773 -22.57141
v -69.84499 6.838989 -56.820023
v -69.84499 -3.6936388 -56.820023
v -41.77866 -3.6936388 -50.956596
v -41.778664 6.838989 -50.956596
v -28.19249 10.254385 197.94989
v -30.784023 -6.106254 57.35542
v -24.965265 -2.7735996 56.93193
v -24.965263 12.102755 197.71494
v -28.19249 6.557646 198.4198
v -30.784023 -12.771557 58.20258
v -24.965263 4.709276 198.65466
v -24.965265 -16.104206 58.62616
v -24.965263 4.709276 198.65466
v -28.19249 6.557646 198.4198
v -28.19249 10.254385 197.94989
v -24.965263 12.102755 197.71494
v -21.73804 10.254385 197.94989
v -24.965263 12.102755 197.71494
v -24.965265 -2.7735996 56.93193
v -19.146507 -6.106254 57.35542
v -21.73804 6.557646 198.4198
v -19.146507 -12.771557 58.20258
v -24.965263 4.709276 198.65466
v -24.965265 -16.104206 58.62616
v -24.965263 4.709276 198.65466
v -24.965263 12.102755 197.71494
v -21.73804 10.254385 197.94989
v -21.73804 6.557646 198.4198
v 44.12233 4.925539 59.650753
v 64.48348 -19.124891 31.342443
v 44.045967 -19.124805 80.19086
v -2.611407E-6 19.12505 -68.36411
v -2.6114606E-6 -19.12507 -79.15977
v 50.797707 -19.125053 -66.75328
v 39.162342 19.125072 -55.957813
v 50.797707 -19.125053 -66.75328
v 64.48348 -19.124891 31.342443
v 64.48348 -19.124891 31.342443
v 50.67776 8.0605545 31.29235
v 39.162342 19.125072 -55.957813
v 39.162342 19.125072 -55.957813
v -2.612113E-6 13.328448 53.314114
v -2.611407E-6 19.12505 -68.36411
v 38.284348 13.328448 53.42448
v 44.12233 4.925539 59.650753
v 44.045967 -19.124805 80.19086
v -2.6118403E-6 -19.124805 80.056816
v -2.612113E-6 13.328448 53.314114
v 50.67776 8.0605545 31.29235
v 38.284348 13.328448 53.42448
v 39.162342 19.125072 -55.957813
v 50.67776 8.0605545 31.29235
v 44.12233 4.925539 59.650753
v 38.284348 13.328448 53.42448
v -2.612113E-6 13.328448 53.314114
v 38.284348 13.328448 53.42448
v 44.12233 4.925539 59.650753
v 39.162342 19.125072 -55.957813
v -2.611407E-6 19.12505 -68.36411
v 50.797707 -19.125053 -66.75328
v 50.67776 8.0605545 31.29235
v 64.48348 -19.124891 31.342443
v 44.12233 4.925539 59.650753
v 45.121185 6.838989 -28.362263
v 41.778656 6.838989 -50.956596
v 69.84498 6.838989 -56.82002
v 74.67477 6.8389773 -22.571407
v 74.67477 6.8389773 -22.571407
v 69.84498 6.838989 -56.82002
v 69.84498 -3.6936388 -56.82002
v 74.674774 -3.6936445 -22.571407
v 45.121185 6.838989 -28.362263
v 74.67477 6.8389773 -22.571407
v 74.674774 -3.6936445 -22.571407
v 45.121185 -3.6936445 -28.362263
v 69.84498 6.838989 -56.82002
v 41.778656 6.838989 -50.956596
v 41.778656 -3.6936388 -50.956596
v 69.84498 -3.6936388 -56.82002
v 28.192486 10.254385 197.94989
v 24.965258 12.102755 197.71494
v 24.965258 -2.7735996 56.93193
v 30.784016 -6.106254 57.35542
v 28.192486 6.557646 198.4198
v 30.784016 -12.771557 58.20258
v 24.965258 4.709276 198.65466
v 24.965258 -16.104206 58.62616
v 24.965258 4.709276 198.65466
v 24.965258 12.102755 197.71494
v 28.192486 10.254385 197.94989
v 28.192486 6.557646 198.4198
v 21.738035 10.254385 197.94989
v 19.146502 -6.106254 57.35542
v 24.965258 -2.7735996 56.93193
v 24.965258 12.102755 197.71494
v 21.738035 6.557646 198.4198
v 19.146502 -12.771557 58.20258
v 24.965258 4.709276 198.65466
v 24.965258 -16.104206 58.62616
v 24.965258 4.709276 198.65466
v 21.738035 6.557646 198.4198
v 21.738035 10.254385 197.94989
v 24.965258 12.102755 197.71494
v -3.227227 10.254385 197.94989
v -5.818761 -6.106254 57.35542
v -2.6104583E-6 -2.7735996 56.93193
v -2.6094035E-6 12.102755 197.71494
v -3.227227 6.557646 198.4198
v -5.818761 -12.771557 58.20258
v -2.6094106E-6 4.709276 198.65466
v -2.6082635E-6 -16.104206 58.62616
v -2.6094106E-6 4.709276 198.65466
v -3.227227 6.557646 198.4198
v -3.227227 10.254385 197.94989
v -2.6094035E-6 12.102755 197.71494
v 3.2272215 10.254385 197.94989
v -2.6094035E-6 12.102755 197.71494
v -2.6104583E-6 -2.7735996 56.93193
v 5.8187556 -6.106254 57.35542
v 3.2272215 6.557646 198.4198
v 5.8187556 -12.771557 58.20258
v -2.6094106E-6 4.709276 198.65466
v -2.6082635E-6 -16.104206 58.62616
v -2.6094106E-6 4.709276 198.65466
v -2.6094035E-6 12.102755 197.71494
v 3.2272215 10.254385 197.94989
v 3.2272215 6.557646 198.4198
vn -0.8769009 0.3105506 0.3668828
vn -0.8769009 0.3105506 0.3668828
vn -0.8769009 0.3105506 0.3668828
vn -0.22881463 0.26442066 -0.93687016
vn -0.22881463 0.26442066 -0.93687016
vn -0.22881463 0.26442066 -0.93687016
vn -0.89004505 0.45188507 -0.06016433
vn -0.89004505 0.45188507 -0.06016433
vn -0.89004505 0.45188507 -0.06016433
vn -0.93761325 0.32213333 -0.13081105
vn -0.93761325 0.32213333 -0.13081105
vn -0.93761325 0.32213333 -0.13081105
vn 0.015073343 0.9987538 0.047579393
vn 0.015073343 0.9987538 0.047579393
vn 0.015073343 0.9987538 0.047579393
vn 1.525553E-4 0.99859875 0.052918687
vn 0.0023140232 0.6494354 0.7604132
vn 0.0023140232 0.6494354 0.7604132
vn 0.0023140232 0.6494354 0.7604132
vn -0.010278427 0.6359073 0.7716969
vn -0.46579754 0.8834459 0.050556365
vn -0.46579754 0.8834459 0.050556365
vn -0.46579754 0.8834459 0.050556365
vn -0.7066898 0.6666288 0.23705654
vn -0.7066898 0.6666288 0.23705654
vn -0.7066898 0.6666288 0.23705654
vn 0.0023184707 0.5943024 0.80423826
vn 0.0023184707 0.5943024 0.80423826
vn 0.0023184707 0.5943024 0.80423826
vn -0.28406426 0.33948648 -0.896692
vn -0.28406426 0.33948648 -0.896692
vn -0.28406426 0.33948648 -0.896692
vn -0.8635425 0.4389942 0.24815018
vn -0.8635425 0.4389942 0.24815018
vn -0.8635425 0.4389942 0.24815018
vn -0.0 1.0 0.0
vn -0.0 1.0 0.0
vn -0.0 1.0 0.0
vn -0.0 1.0 0.0
vn -0.9902023 0.0 -0.13963978
vn -0.9902023 0.0 -0.13963996
vn -0.9902023 0.0 -0.13963978
vn -0.9902024 0.0 -0.13963962
vn 0.19228762 0.0 0.9813386
vn 0.19228756 0.0 0.9813386
vn 0.19228756 0.0 0.9813386
vn 0.19228767 0.0 0.9813386
vn 0.20449817 0.0 -0.978867
vn 0.20449814 0.0 -0.978867
vn 0.20449817 0.0 -0.978867
vn 0.20449817 0.0 -0.978867
vn -0.7557659 0.6519068 -0.061930053
vn -0.9447075 0.32726228 -0.02066923
vn -0.0 0.9944634 -0.10508362
vn -0.0 0.9944634 -0.10508362
vn -0.94470745 -0.32202822 0.061852526
vn -0.75576544 -0.6466732 0.103113376
vn -0.0 -0.9891332 0.1470222
vn -0.0 -0.9891332 0.14702226
vn -0.0 0.12610021 0.9920175
vn -0.0 0.12610021 0.9920175
vn -0.0 0.12610021 0.9920175
vn -0.0 0.12608808 0.992019
vn 0.75576603 0.65190667 -0.061930038
vn -0.0 0.9944634 -0.10508362
vn -0.0 0.9944634 -0.10508362
vn 0.9447075 0.32726228 -0.020669224
vn 0.9447075 -0.32202807 0.061852507
vn 0.7557657 -0.646673 0.10311335
vn -0.0 -0.9891332 0.1470222
vn -0.0 -0.9891332 0.14702226
vn -0.0 0.12608808 0.992019
vn -0.0 0.12608808 0.992019
vn -0.0 0.12608808 0.992019
vn -0.0 0.12610021 0.9920175
vn 0.8769009 0.31055066 0.3668829
vn 0.8769009 0.31055066 0.3668829
vn 0.8769009 0.31055066 0.3668829
vn 0.22881465 0.26442066 -0.93687004
vn 0.22881465 0.26442066 -0.93687004
vn 0.22881465 0.26442066 -0.93687004
vn 0.93761325 0.32213327 -0.13081114
vn 0.93761325 0.32213327 -0.13081114
vn 0.93761325 0.32213327 -0.13081114
vn 0.89004505 0.45188507 -0.06016437
vn 0.89004505 0.45188507 -0.06016437
vn 0.89004505 0.45188507 -0.06016437
vn -0.015073338 0.9987538 0.047579393
vn -0.015073338 0.9987538 0.047579393
vn -0.015073338 0.9987538 0.047579393
vn -1.5255655E-4 0.99859875 0.05291868
vn -0.002314036 0.64943534 0.7604133
vn -0.002314036 0.64943534 0.7604133
vn -0.002314036 0.64943534 0.7604133
vn 0.0102784075 0.6359073 0.7716969
vn 0.4657974 0.88344604 0.050556384
vn 0.4657974 0.88344604 0.050556384
vn 0.4657974 0.88344604 0.050556384
vn 0.7066897 0.6666287 0.2370567
vn 0.7066897 0.6666287 0.2370567
vn 0.7066897 0.6666287 0.2370567
vn -0.0023184973 0.5943024 0.80423826
vn -0.0023184973 0.5943024 0.80423826
vn -0.0023184973 0.5943024 0.80423826
vn 0.2840643 0.33948648 -0.896692
vn 0.2840643 0.33948648 -0.896692
vn 0.2840643 0.33948648 -0.896692
vn 0.8635425 0.4389942 0.2481504
vn 0.8635425 0.4389942 0.2481504
vn 0.8635425 0.4389942 0.2481504
vn -0.0 1.0 0.0
vn -0.0 1.0 0.0
vn -0.0 1.0 0.0
vn -0.0 1.0 0.0
vn 0.9902023 0.0 -0.13963975
vn 0.9902024 0.0 -0.13963962
vn 0.9902023 0.0 -0.13963975
vn 0.9902023 0.0 -0.13963991
vn -0.19228768 0.0 0.9813386
vn -0.19228771 0.0 0.9813386
vn -0.19228771 0.0 0.9813386
vn -0.19228764 0.0 0.9813386
vn -0.20449817 0.0 -0.978867
vn -0.20449817 0.0 -0.978867
vn -0.20449817 0.0 -0.978867
vn -0.20449814 0.0 -0.978867
vn 0.7557659 0.65190685 -0.061930068
vn -0.0 0.9944634 -0.10508362
vn -0.0 0.9944634 -0.10508362
vn 0.94470745 0.3272623 -0.020669242
vn 0.94470745 -0.32202816 0.061852526
vn 0.75576544 -0.6466732 0.103113376
vn -0.0 -0.9891332 0.1470222
vn -0.0 -0.9891332 0.14702226
vn -0.0 0.12608808 0.992019
vn -0.0 0.12608808 0.992019
vn -0.0 0.12608808 0.992019
vn -0.0 0.12610021 0.9920175
vn -0.75576615 0.6519066 -0.06193003
vn -0.9447075 0.3272622 -0.020669213
vn -0.0 0.9944634 -0.10508362
vn -0.0 0.9944634 -0.10508362
vn -0.9447075 -0.322028 0.061852515
vn -0.75576574 -0.64667296 0.10311336
vn -0.0 -0.9891332 0.1470222
vn -0.0 -0.9891332 0.14702226
vn -0.0 0.12610021 0.9920175
vn -0.0 0.12610021 0.9920175
vn -0.0 0.12610021 0.9920175
vn -0.0 0.12608808 0.992019
vn -0.755766 0.6519067 -0.061930045
vn -0.9447075 0.32726225 -0.020669224
vn -0.0 0.9944634 -0.10508361
vn -0.0 0.9944634 -0.10508362
vn -0.94470745 -0.32202813 0.06185252
vn -0.75576556 -0.6466731 0.103113346
vn -0.0 -0.9891332 0.1470222
vn -0.0 -0.9891332 0.14702226
vn -0.0 0.12610021 0.9920175
vn -0.0 0.12610021 0.9920175
vn -0.0 0.12610021 0.9920175
vn -0.0 0.12608808 0.992019
vn 0.755766 0.6519067 -0.061930034
vn -0.0 0.9944634 -0.10508362
vn -0.0 0.9944634 -0.10508361
vn 0.9447075 0.32726228 -0.020669222
vn 0.94470745 -0.32202807 0.06185252
vn 0.75576556 -0.6466731 0.10311336
vn -0.0 -0.9891332 0.1470222
vn -0.0 -0.9891332 0.14702226
vn -0.0 0.12608808 0.992019
vn -0.0 0.12608808 0.992019
vn -0.0 0.12608808 0.992019
vn -0.0 0.12610021 0.9920175
vt 0.21679227 0.5387149
vt 0.24707983 0.46552253
vt 0.27448145 0.5105633
vt 0.06151698 0.37661642
vt 0.104470715 0.35730177
vt 0.077838406 0.4877702
vt 0.11817853 0.44408613
vt 0.2149962 0.47162658
vt 0.21679227 0.5387149
vt 0.21679227 0.5387149
vt 0.106976256 0.53317285
vt 0.11817853 0.44408613
vt 0.23937784 0.3575055
vt 0.11817853 0.44408613
vt 0.104470715 0.35730177
vt 0.23946802 0.4423005
vt 0.28607824 0.45500338
vt 0.2510526 0.45522118
vt 0.28594777 0.35744703
vt 0.23937784 0.3575055
vt 0.23946802 0.4423005
vt 0.2149962 0.47162658
vt 0.11817853 0.44408613
vt 0.24707983 0.46552253
vt 0.2149962 0.47162658
vt 0.23946802 0.4423005
vt 0.2510526 0.45522118
vt 0.23946802 0.4423005
vt 0.23937784 0.3575055
vt 0.104470715 0.35730177
vt 0.11817853 0.44408613
vt 0.077838406 0.4877702
vt 0.21679227 0.5387149
vt 0.2149962 0.47162658
vt 0.24707983 0.46552253
vt 0.29799357 0.56285226
vt 0.29799357 0.6337172
vt 0.26233855 0.6337172
vt 0.26233855 0.56285226
vt 0.29799357 0.6337172
vt 0.29799357 0.6631397
vt 0.26233855 0.6631397
vt 0.26233855 0.6337172
vt 0.29799357 0.56285226
vt 0.31038585 0.56285226
vt 0.31038585 0.6337172
vt 0.29799357 0.6337172
vt 0.26233855 0.6337172
vt 0.2494515 0.6337172
vt 0.2494515 0.56285226
vt 0.26233855 0.56285226
vt 0.18574075 0.10178
vt 0.003762923 0.10178
vt 0.003762923 0.08950573
vt 0.18574075 0.08950573
vt 0.18574075 0.114061
vt 0.003762923 0.114061
vt 0.18574075 0.12634283
vt 0.003762923 0.12634283
vt 0.13634174 0.0822441
vt 0.1444807 0.07284683
vt 0.14448087 0.054051816
vt 0.13634174 0.04465431
vt 0.18574075 0.10178
vt 0.18574075 0.08950573
vt 0.003762923 0.08950573
vt 0.003762923 0.10178
vt 0.18574075 0.114061
vt 0.003762923 0.114061
vt 0.18574075 0.12634283
vt 0.003762923 0.12634283
vt 0.13634174 0.0822441
vt 0.13634174 0.04465431
vt 0.14448087 0.054051816
vt 0.1444807 0.07284683
vt 0.24707983 0.46552253
vt 0.21679227 0.5387149
vt 0.27448145 0.5105633
vt 0.104470715 0.35730177
vt 0.06151698 0.37661642
vt 0.077838406 0.4877702
vt 0.11817853 0.44408613
vt 0.106976256 0.53317285
vt 0.21679227 0.5387149
vt 0.21679227 0.5387149
vt 0.2149962 0.47162658
vt 0.11817853 0.44408613
vt 0.11817853 0.44408613
vt 0.23937784 0.3575055
vt 0.104470715 0.35730177
vt 0.23946802 0.4423005
vt 0.2510526 0.45522118
vt 0.28607824 0.45500338
vt 0.28594777 0.35744703
vt 0.23937784 0.3575055
vt 0.2149962 0.47162658
vt 0.23946802 0.4423005
vt 0.11817853 0.44408613
vt 0.2149962 0.47162658
vt 0.24707983 0.46552253
vt 0.23946802 0.4423005
vt 0.23937784 0.3575055
vt 0.23946802 0.4423005
vt 0.2510526 0.45522118
vt 0.11817853 0.44408613
vt 0.104470715 0.35730177
vt 0.077838406 0.4877702
vt 0.2149962 0.47162658
vt 0.21679227 0.5387149
vt 0.24707983 0.46552253
vt 0.29799357 0.56285226
vt 0.26233855 0.56285226
vt 0.26233855 0.6337172
vt 0.29799357 0.6337172
vt 0.29799357 0.6337172
vt 0.26233855 0.6337172
vt 0.26233855 0.6631397
vt 0.29799357 0.6631397
vt 0.29799357 0.56285226
vt 0.29799357 0.6337172
vt 0.31038585 0.6337172
vt 0.31038585 0.56285226
vt 0.26233855 0.6337172
vt 0.26233855 0.56285226
vt 0.2494515 0.56285226
vt 0.2494515 0.6337172
vt 0.18574075 0.10178
vt 0.18574075 0.08950573
vt 0.003762923 0.08950573
vt 0.003762923 0.10178
vt 0.18574075 0.114061
vt 0.003762923 0.114061
vt 0.18574075 0.12634283
vt 0.003762923 0.12634283
vt 0.13634174 0.0822441
vt 0.13634174 0.04465431
vt 0.14448087 0.054051816
vt 0.1444807 0.07284683
vt 0.18574075 0.10178
vt 0.003762923 0.10178
vt 0.003762923 0.08950573
vt 0.18574075 0.08950573
vt 0.18574075 0.114061
vt 0.003762923 0.114061
vt 0.18574075 0.12634283
vt 0.003762923 0.12634283
vt 0.13634174 0.0822441
vt 0.1444807 0.07284683
vt 0.14448087 0.054051816
vt 0.13634174 0.04465431
vt 0.18574075 0.10178
vt 0.003762923 0.10178
vt 0.003762923 0.08950573
vt 0.18574075 0.08950573
vt 0.18574075 0.114061
vt 0.003762923 0.114061
vt 0.18574075 0.12634283
vt 0.003762923 0.12634283
vt 0.13634174 0.0822441
vt 0.1444807 0.07284683
vt 0.14448087 0.054051816
vt 0.13634174 0.04465431
vt 0.18574075 0.10178
vt 0.18574075 0.08950573
vt 0.003762923 0.08950573
vt 0.003762923 0.10178
vt 0.18574075 0.114061
vt 0.003762923 0.114061
vt 0.18574075 0.12634283
vt 0.003762923 0.12634283
vt 0.13634174 0.0822441
vt 0.13634174 0.04465431
vt 0.14448087 0.054051816
vt 0.1444807 0.07284683

g artillery2
s 1
usemtl artillery2
f 3/3/3 2/2/2 1/1/1 
f 6/6/6 5/5/5 4/4/4 
f 9/9/9 8/8/8 7/7/7 
f 12/12/12 11/11/11 10/10/10 
f 15/15/15 14/14/14 13/13/13 
f 14/14/14 16/16/16 13/13/13 
f 19/19/19 18/18/18 17/17/17 
f 18/18/18 19/19/19 20/20/20 
f 23/23/23 22/22/22 21/21/21 
f 26/26/26 25/25/25 24/24/24 
f 29/29/29 28/28/28 27/27/27 
f 32/32/32 31/31/31 30/30/30 
f 35/35/35 34/34/34 33/33/33 
f 38/38/38 37/37/37 36/36/36 
f 36/36/36 39/39/39 38/38/38 
f 42/42/42 41/41/41 40/40/40 
f 40/40/40 43/43/43 42/42/42 
f 46/46/46 45/45/45 44/44/44 
f 44/44/44 47/47/47 46/46/46 
f 50/50/50 49/49/49 48/48/48 
f 48/48/48 51/51/51 50/50/50 
f 54/54/54 53/53/53 52/52/52 
f 52/52/52 55/55/55 54/54/54 
f 56/56/56 52/52/52 53/53/53 
f 53/53/53 57/57/57 56/56/56 
f 58/58/58 56/56/56 57/57/57 
f 57/57/57 59/59/59 58/58/58 
f 62/62/62 61/61/61 60/60/60 
f 60/60/60 63/63/63 62/62/62 
f 66/66/66 65/65/65 64/64/64 
f 64/64/64 67/67/67 66/66/66 
f 67/67/67 64/64/64 68/68/68 
f 68/68/68 69/69/69 67/67/67 
f 69/69/69 68/68/68 70/70/70 
f 70/70/70 71/71/71 69/69/69 
f 74/74/74 73/73/73 72/72/72 
f 72/72/72 75/75/75 74/74/74 
f 78/78/78 77/77/77 76/76/76 
f 81/81/81 80/80/80 79/79/79 
f 84/84/84 83/83/83 82/82/82 
f 87/87/87 86/86/86 85/85/85 
f 90/90/90 89/89/89 88/88/88 
f 88/88/88 89/89/89 91/91/91 
f 94/94/94 93/93/93 92/92/92 
f 95/95/95 94/94/94 92/92/92 
f 98/98/98 97/97/97 96/96/96 
f 101/101/101 100/100/100 99/99/99 
f 104/104/104 103/103/103 102/102/102 
f 107/107/107 106/106/106 105/105/105 
f 110/110/110 109/109/109 108/108/108 
f 113/113/113 112/112/112 111/111/111 
f 111/111/111 114/114/114 113/113/113 
f 117/117/117 116/116/116 115/115/115 
f 115/115/115 118/118/118 117/117/117 
f 121/121/121 120/120/120 119/119/119 
f 119/119/119 122/122/122 121/121/121 
f 125/125/125 124/124/124 123/123/123 
f 123/123/123 126/126/126 125/125/125 
f 129/129/129 128/128/128 127/127/127 
f 127/127/127 130/130/130 129/129/129 
f 130/130/130 127/127/127 131/131/131 
f 131/131/131 132/132/132 130/130/130 
f 132/132/132 131/131/131 133/133/133 
f 133/133/133 134/134/134 132/132/132 
f 137/137/137 136/136/136 135/135/135 
f 135/135/135 138/138/138 137/137/137 
f 141/141/141 140/140/140 139/139/139 
f 139/139/139 142/142/142 141/141/141 
f 143/143/143 139/139/139 140/140/140 
f 140/140/140 144/144/144 143/143/143 
f 145/145/145 143/143/143 144/144/144 
f 144/144/144 146/146/146 145/145/145 
f 149/149/149 148/148/148 147/147/147 
f 147/147/147 150/150/150 149/149/149 
f 153/153/153 152/152/152 151/151/151 
f 151/151/151 154/154/154 153/153/153 
f 155/155/155 151/151/151 152/152/152 
f 152/152/152 156/156/156 155/155/155 
f 157/157/157 155/155/155 156/156/156 
f 156/156/156 158/158/158 157/157/157 
f 161/161/161 160/160/160 159/159/159 
f 159/159/159 162/162/162 161/161/161 
f 165/165/165 164/164/164 163/163/163 
f 163/163/163 166/166/166 165/165/165 
f 166/166/166 163/163/163 167/167/167 
f 167/167/167 168/168/168 166/166/166 
f 168/168/168 167/167/167 169/169/169 
f 169/169/169 170/170/170 168/168/168 
f 173/173/173 172/172/172 171/171/171 
f 171/171/171 174/174/174 173/173/173 

