# Created by DisUnity v0.3.4
v -22.374084 2.4005363 22.28419
v -22.37415 -23.703716 22.28419
v -22.50312 -23.703716 -2.277794E-6
v -22.50312 2.4005363 -2.277794E-6
v -22.374084 2.4005363 22.28419
v -11.16103 19.372614 4.2637106E-7
v -11.16103 19.372614 4.2637106E-7
v -11.031737 19.372614 22.2842
v 22.32126 26.086473 22.2842
v 22.191679 26.086473 3.213038E-7
v 42.01608 26.086473 22.284197
v 46.07074 26.086473 -2.0424568E-6
v 22.32126 26.086473 22.2842
v 42.01608 26.086473 22.284197
v 42.01608 -23.703781 22.284197
v -11.031737 19.372614 22.2842
v -22.374084 2.4005363 22.28419
v -22.37415 -23.703716 22.28419
v -22.374084 2.4005363 22.28419
v 46.07074 26.086473 -2.0424568E-6
v 46.070675 -23.703781 -2.042472E-6
v 42.01608 -23.703781 22.284197
v 42.01608 26.086473 22.284197
v -84.5382 32.67574 2.326764
v -5.0913587 5.2620993 3.902582
v -5.8032074 3.1243265 1.7037754E-6
v -84.96258 31.40119 -9.112317E-6
v -83.689384 35.22487 2.3267643
v -3.6676595 9.537628 3.9025822
v -5.0913587 5.2620993 3.902582
v -84.5382 32.67574 2.326764
v -83.26501 36.499416 -8.707583E-6
v -2.955809 11.675352 2.382648E-6
v -3.6676595 9.537628 3.9025822
v -83.689384 35.22487 2.3267643
v -83.689384 35.22487 2.3267643
v -84.5382 32.67574 2.326764
v -84.96258 31.40119 -9.112317E-6
v -83.26501 36.499416 -8.707583E-6
v -22.374075 2.4005363 -22.284199
v -22.50312 2.4005363 -2.277794E-6
v -22.50312 -23.703716 -2.277794E-6
v -22.374138 -23.703716 -22.284199
v -11.16103 19.372614 4.2637106E-7
v -22.374075 2.4005363 -22.284199
v -11.031726 19.372614 -22.2842
v -11.16103 19.372614 4.2637106E-7
v 22.321272 26.086473 -22.284199
v 22.191679 26.086473 3.213038E-7
v 42.01609 26.086473 -22.284197
v 46.07074 26.086473 -2.0424568E-6
v 42.01609 26.086473 -22.284197
v 22.321272 26.086473 -22.284199
v 42.01609 -23.703781 -22.284197
v -11.031726 19.372614 -22.2842
v -22.374075 2.4005363 -22.284199
v -22.374075 2.4005363 -22.284199
v -22.374138 -23.703716 -22.284199
v 46.07074 26.086473 -2.0424568E-6
v 42.01609 26.086473 -22.284197
v 42.01609 -23.703781 -22.284197
v 46.070675 -23.703781 -2.042472E-6
v -84.5382 32.67574 -2.32679
v -84.96258 31.40119 -9.112317E-6
v -5.8032074 3.1243265 1.7037754E-6
v -5.0913568 5.2620993 -3.9025862
v -83.68938 35.22487 -2.3267899
v -84.5382 32.67574 -2.32679
v -5.0913568 5.2620993 -3.9025862
v -3.6676576 9.537628 -3.9025857
v -83.26501 36.499416 -8.707583E-6
v -83.68938 35.22487 -2.3267899
v -3.6676576 9.537628 -3.9025857
v -2.955809 11.675352 2.382648E-6
v -83.68938 35.22487 -2.3267899
v -83.26501 36.499416 -8.707583E-6
v -84.96258 31.40119 -9.112317E-6
v -84.5382 32.67574 -2.32679
v 15.331775 -23.814436 15.778709
v 21.867594 -23.814436 2.440362E-7
v 21.867594 -36.499477 2.440362E-7
v 15.331775 -36.499477 15.778709
v -0.44687307 -23.814404 22.31445
v -0.44687307 -36.499477 22.31445
v -16.225582 -23.814404 15.778694
v -0.44687307 -23.814404 22.31445
v -0.44687307 -36.499477 22.31445
v -16.225582 -36.499477 15.778694
v -22.761395 -23.814404 -2.3393713E-6
v -22.761395 -36.499477 -2.3393713E-6
v -0.44687307 -23.814404 22.31445
v -16.225582 -23.814404 15.778694
v -22.761395 -23.814404 -2.3393713E-6
v 15.331775 -23.814436 15.778709
v 21.867594 -23.814436 2.440362E-7
v 15.331782 -23.814436 -15.7787075
v 15.331782 -36.499477 -15.7787075
v 21.867594 -36.499477 2.440362E-7
v 21.867594 -23.814436 2.440362E-7
v -0.4469269 -23.814404 -22.314459
v -0.4469269 -36.499477 -22.314459
v -16.225574 -23.814404 -15.778697
v -16.225574 -36.499477 -15.778697
v -0.4469269 -36.499477 -22.314459
v -0.4469269 -23.814404 -22.314459
v -22.761395 -23.814404 -2.3393713E-6
v -22.761395 -36.499477 -2.3393713E-6
v -22.761395 -23.814404 -2.3393713E-6
v -16.225574 -23.814404 -15.778697
v -0.4469269 -23.814404 -22.314459
v 15.331782 -23.814436 -15.7787075
v 21.867594 -23.814436 2.440362E-7
vn -0.95691437 0.2903174 0.005542707
vn -0.9999833 0.0 0.005787446
vn -1.0 0.0 0.0
vn -0.95693 0.29031873 0.0
vn -0.95691437 0.2903174 0.005542707
vn -0.5564904 0.830854 0.0
vn -0.5564904 0.830854 0.0
vn -0.556485 0.8308514 0.0032287266
vn -0.13213824 0.991231 7.6752994E-4
vn -0.06606941 0.997815 0.0
vn -0.0 1.0 0.0
vn -0.0 1.0 0.0
vn -0.0 0.0 1.0
vn -0.0 0.0 1.0
vn -0.0 0.0 1.0
vn -0.0 0.0 1.0
vn -0.0 0.0 1.0
vn -0.0 0.0 1.0
vn -0.0 0.0 1.0
vn 1.0 0.0 0.0
vn 1.0 0.0 0.0
vn 0.9838472 0.0 0.17901039
vn 0.98384666 0.0 0.17901313
vn -0.2913448 -0.8156025 0.49991068
vn -0.29134375 -0.81560004 0.49991536
vn -0.2913448 -0.8156025 0.49991068
vn -0.2913459 -0.815605 0.499906
vn -0.01778762 0.0059229424 0.99982435
vn -0.017787615 0.0059229853 0.99982435
vn -0.01778762 0.0059229424 0.99982435
vn -0.017787626 0.0059229 0.99982435
vn 0.25577003 0.8274507 0.4999071
vn 0.25576988 0.82745034 0.49990767
vn 0.25577003 0.8274507 0.4999071
vn 0.25577018 0.827451 0.49990654
vn -0.9487828 0.31592906 0.0
vn -0.9487828 0.31592906 0.0
vn -0.9487828 0.31592906 0.0
vn -0.9487858 0.31592005 0.0
vn -0.95691437 0.2903174 -0.0055431686
vn -0.95693 0.29031873 0.0
vn -1.0 0.0 0.0
vn -0.9999833 0.0 -0.0057879216
vn -0.5564904 0.830854 0.0
vn -0.95691437 0.2903174 -0.0055431686
vn -0.556485 0.8308514 -0.0032289973
vn -0.5564904 0.830854 0.0
vn -0.13213825 0.991231 -7.675895E-4
vn -0.06606941 0.997815 0.0
vn -0.0 1.0 0.0
vn -0.0 1.0 0.0
vn -0.0 0.0 -1.0
vn -0.0 0.0 -1.0
vn -0.0 0.0 -1.0
vn -0.0 0.0 -1.0
vn -0.0 0.0 -1.0
vn -0.0 0.0 -1.0
vn -0.0 0.0 -1.0
vn 1.0 0.0 0.0
vn 0.9838468 0.0 -0.17901272
vn 0.9838468 0.0 -0.17901272
vn 1.0 0.0 0.0
vn -0.29134482 -0.81560296 -0.4999099
vn -0.29134592 -0.8156056 -0.49990505
vn -0.29134482 -0.81560296 -0.4999099
vn -0.29134375 -0.81560045 -0.49991482
vn -0.01778734 0.0059230085 -0.99982435
vn -0.01778735 0.0059229746 -0.99982435
vn -0.01778734 0.0059230085 -0.99982435
vn -0.017787326 0.0059230425 -0.99982435
vn 0.25577033 0.82745117 -0.49990615
vn 0.25577053 0.8274516 -0.49990532
vn 0.25577033 0.82745117 -0.49990615
vn 0.25577015 0.8274507 -0.499907
vn -0.9487858 0.31592008 0.0
vn -0.9487858 0.31592008 0.0
vn -0.9487858 0.31592008 0.0
vn -0.9487828 0.31592906 0.0
vn 0.7971738 0.0 0.6037498
vn 0.9238782 0.0 0.38268667
vn 0.9238782 0.0 0.38268667
vn 0.6037474 0.0 0.7971756
vn 0.38268393 0.0 0.9238793
vn 0.38268393 0.0 0.9238793
vn -0.6037472 0.0 0.7971758
vn -0.38268343 0.0 0.9238795
vn -0.38268343 0.0 0.9238795
vn -0.7971738 0.0 0.60374993
vn -0.9238782 0.0 0.38268656
vn -0.9238782 0.0 0.38268656
vn -0.0 1.0 0.0
vn -0.0 1.0 0.0
vn -0.0 1.0 0.0
vn -0.0 1.0 0.0
vn -0.0 1.0 0.0
vn 0.79717386 0.0 -0.6037498
vn 0.6037472 0.0 -0.7971759
vn 0.9238783 0.0 -0.38268632
vn 0.9238783 0.0 -0.38268632
vn 0.38268325 0.0 -0.9238796
vn 0.38268322 0.0 -0.9238796
vn -0.60374814 0.0 -0.79717517
vn -0.7971739 0.0 -0.60374963
vn -0.382685 0.0 -0.9238788
vn -0.382685 0.0 -0.9238788
vn -0.9238781 0.0 -0.3826869
vn -0.9238781 0.0 -0.3826869
vn -0.0 1.0 0.0
vn -0.0 1.0 0.0
vn -0.0 1.0 0.0
vn -0.0 1.0 0.0
vn -0.0 1.0 0.0
vt 0.8465174 0.7641299
vt 0.8418117 0.7992111
vt 0.8092789 0.7888685
vt 0.8201172 0.75031376
vt 0.8465174 0.7641299
vt 0.8416088 0.72158074
vt 0.8416088 0.72158074
vt 0.8593078 0.74401116
vt 0.9011571 0.73101664
vt 0.89090115 0.7013978
vt 0.9274511 0.7263906
vt 0.9249427 0.69394684
vt 0.9011571 0.73101664
vt 0.9274511 0.7263906
vt 0.93588775 0.7986936
vt 0.8593078 0.74401116
vt 0.8465174 0.7641299
vt 0.8418117 0.7992111
vt 0.8465174 0.7641299
vt 0.9249427 0.69394684
vt 0.99471706 0.6889107
vt 0.9971706 0.7206392
vt 0.9274511 0.7263906
vt 0.846253 0.82426983
vt 0.99207634 0.8242633
vt 0.99207634 0.83208096
vt 0.846253 0.8321008
vt 0.846253 0.8164369
vt 0.99207634 0.81644356
vt 0.99207634 0.8242633
vt 0.846253 0.82426983
vt 0.846253 0.8086064
vt 0.99207634 0.80862576
vt 0.99207634 0.81644356
vt 0.846253 0.8164369
vt 0.93549407 0.7367385
vt 0.93549407 0.7521075
vt 0.94880414 0.759792
vt 0.94880414 0.72905356
vt 0.8465174 0.7641299
vt 0.8201172 0.75031376
vt 0.8092789 0.7888685
vt 0.8418117 0.7992111
vt 0.8416088 0.72158074
vt 0.8465174 0.7641299
vt 0.8593078 0.74401116
vt 0.8416088 0.72158074
vt 0.9011571 0.73101664
vt 0.89090115 0.7013978
vt 0.9274511 0.7263906
vt 0.9249427 0.69394684
vt 0.9274511 0.7263906
vt 0.9011571 0.73101664
vt 0.93588775 0.7986936
vt 0.8593078 0.74401116
vt 0.8465174 0.7641299
vt 0.8465174 0.7641299
vt 0.8418117 0.7992111
vt 0.9249427 0.69394684
vt 0.9274511 0.7263906
vt 0.9971706 0.7206392
vt 0.99471706 0.6889107
vt 0.846253 0.82426983
vt 0.846253 0.8321008
vt 0.99207634 0.83208096
vt 0.99207634 0.8242633
vt 0.846253 0.8164369
vt 0.846253 0.82426983
vt 0.99207634 0.8242633
vt 0.99207634 0.81644356
vt 0.846253 0.8086064
vt 0.846253 0.8164369
vt 0.99207634 0.81644356
vt 0.99207634 0.80862576
vt 0.93549407 0.7367385
vt 0.94880414 0.72905356
vt 0.94880414 0.759792
vt 0.93549407 0.7521075
vt 0.7726247 0.8189681
vt 0.75090593 0.8189681
vt 0.75090593 0.8350999
vt 0.7726247 0.8350999
vt 0.79434353 0.8189681
vt 0.79434353 0.8350999
vt 0.8160626 0.8189681
vt 0.79434353 0.8189681
vt 0.79434353 0.8350999
vt 0.8160626 0.8350999
vt 0.8377817 0.8189681
vt 0.8377817 0.8350999
vt 0.95269084 0.7659823
vt 0.9635812 0.79227376
vt 0.9898726 0.8031639
vt 0.9635812 0.7396909
vt 0.9898726 0.7288008
vt 0.7726247 0.8189681
vt 0.7726247 0.8350999
vt 0.75090593 0.8350999
vt 0.75090593 0.8189681
vt 0.79434353 0.8189681
vt 0.79434353 0.8350999
vt 0.8160626 0.8189681
vt 0.8160626 0.8350999
vt 0.79434353 0.8350999
vt 0.79434353 0.8189681
vt 0.8377817 0.8189681
vt 0.8377817 0.8350999
vt 0.9898726 0.8031639
vt 0.9635812 0.79227376
vt 0.95269084 0.7659823
vt 0.9635812 0.7396909
vt 0.9898726 0.7288008

g artillery1
s 1
usemtl artillery1
f 3/3/3 2/2/2 1/1/1 
f 1/1/1 4/4/4 3/3/3 
f 6/6/6 4/4/4 5/5/5 
f 5/5/5 8/8/8 7/7/7 
f 7/7/7 8/8/8 9/9/9 
f 9/9/9 10/10/10 7/7/7 
f 10/10/10 9/9/9 11/11/11 
f 11/11/11 12/12/12 10/10/10 
f 15/15/15 14/14/14 13/13/13 
f 15/15/15 13/13/13 16/16/16 
f 15/15/15 16/16/16 17/17/17 
f 19/19/19 18/18/18 15/15/15 
f 22/22/22 21/21/21 20/20/20 
f 20/20/20 23/23/23 22/22/22 
f 26/26/26 25/25/25 24/24/24 
f 24/24/24 27/27/27 26/26/26 
f 30/30/30 29/29/29 28/28/28 
f 28/28/28 31/31/31 30/30/30 
f 34/34/34 33/33/33 32/32/32 
f 32/32/32 35/35/35 34/34/34 
f 38/38/38 37/37/37 36/36/36 
f 36/36/36 39/39/39 38/38/38 
f 42/42/42 41/41/41 40/40/40 
f 40/40/40 43/43/43 42/42/42 
f 45/45/45 41/41/41 44/44/44 
f 47/47/47 46/46/46 45/45/45 
f 48/48/48 46/46/46 47/47/47 
f 47/47/47 49/49/49 48/48/48 
f 50/50/50 48/48/48 49/49/49 
f 49/49/49 51/51/51 50/50/50 
f 54/54/54 53/53/53 52/52/52 
f 54/54/54 55/55/55 53/53/53 
f 56/56/56 55/55/55 54/54/54 
f 54/54/54 58/58/58 57/57/57 
f 61/61/61 60/60/60 59/59/59 
f 59/59/59 62/62/62 61/61/61 
f 65/65/65 64/64/64 63/63/63 
f 63/63/63 66/66/66 65/65/65 
f 69/69/69 68/68/68 67/67/67 
f 67/67/67 70/70/70 69/69/69 
f 73/73/73 72/72/72 71/71/71 
f 71/71/71 74/74/74 73/73/73 
f 77/77/77 76/76/76 75/75/75 
f 75/75/75 78/78/78 77/77/77 
f 81/81/81 80/80/80 79/79/79 
f 79/79/79 82/82/82 81/81/81 
f 82/82/82 79/79/79 83/83/83 
f 83/83/83 84/84/84 82/82/82 
f 87/87/87 86/86/86 85/85/85 
f 85/85/85 88/88/88 87/87/87 
f 88/88/88 85/85/85 89/89/89 
f 89/89/89 90/90/90 88/88/88 
f 93/93/93 92/92/92 91/91/91 
f 93/93/93 91/91/91 94/94/94 
f 95/95/95 93/93/93 94/94/94 
f 98/98/98 97/97/97 96/96/96 
f 96/96/96 99/99/99 98/98/98 
f 100/100/100 96/96/96 97/97/97 
f 97/97/97 101/101/101 100/100/100 
f 104/104/104 103/103/103 102/102/102 
f 102/102/102 105/105/105 104/104/104 
f 106/106/106 102/102/102 103/103/103 
f 103/103/103 107/107/107 106/106/106 
f 110/110/110 109/109/109 108/108/108 
f 111/111/111 110/110/110 108/108/108 
f 112/112/112 111/111/111 108/108/108 

