# Created by DisUnity v0.3.4
v -2.1051395 0.45207334 -4.5112514
v -2.46968 3.8093467 -15.924234
v -2.7439494 3.544379 -16.002182
v -2.743975 -0.16509183 -4.6927886
v -2.7439494 4.0743303 -15.846309
v -2.46968 3.8093467 -15.924234
v -2.1051395 0.45207334 -4.5112514
v -2.743975 1.0692279 -4.329693
v -3.3828351 0.45207334 -4.5112514
v -2.743975 -0.16509183 -4.6927886
v -2.7439494 3.544379 -16.002182
v -3.018245 3.8093467 -15.924234
v -2.7439494 4.0743303 -15.846309
v -2.743975 1.0692279 -4.329693
v -3.3828351 0.45207334 -4.5112514
v -3.018245 3.8093467 -15.924234
v -1.2347227E-5 3.3253887 -2.7975829
v -1.234611E-5 4.3916287 2.749253
v -5.675795 4.4022675 2.7244043
v -5.676659 3.3361812 -2.8223786
v -5.683365 -0.94039214 -6.5381064
v -1.2349484E-5 -0.9511369 -6.5132895
v -1.2348441E-5 4.388656 6.4157605
v -2.664625 4.393838 5.931209
v -5.675998 4.401282 3.9989161
v -1.2349449E-5 -4.3910356 -6.5162144
v -5.683365 -0.94039214 -6.5381064
v -5.6891303 -4.380312 -6.541031
v -1.2348441E-5 4.388656 6.4157605
v -1.2348476E-5 4.388656 6.418664
v -2.664625 4.393838 5.931209
v 2.6646256 4.393838 5.931209
v -5.675998 4.401282 3.9989161
v -2.664625 4.393838 5.931209
v -2.6796362 -4.396694 5.9238343
v -5.6906796 -4.3894777 3.9914775
v -1.2348401E-5 -4.402257 6.4123487
v -2.664625 4.393838 5.931209
v -1.2348476E-5 4.388656 6.418664
v -5.676659 3.3361812 -2.8223786
v -5.6906796 -4.3894777 3.9914775
v -5.6891303 -4.380312 -6.541031
v -5.683365 -0.94039214 -6.5381064
v -5.675998 4.401282 3.9989161
v -5.675795 4.4022675 2.7244043
v 2.7439501 3.544379 -16.002182
v 2.4696808 3.8093522 -15.924234
v 2.1051142 0.45207334 -4.5112514
v 2.74395 -0.16509183 -4.6927886
v 2.1051142 0.45207334 -4.5112514
v 2.4696808 3.8093522 -15.924234
v 2.7439501 4.0743303 -15.846309
v 2.7439501 1.0692279 -4.329693
v 2.7439501 3.544379 -16.002182
v 2.74395 -0.16509183 -4.6927886
v 3.3828104 0.45207334 -4.5112514
v 3.0182436 3.8093522 -15.924234
v 3.3828104 0.45207334 -4.5112514
v 2.7439501 1.0692279 -4.329693
v 2.7439501 4.0743303 -15.846309
v 3.0182436 3.8093522 -15.924234
v 5.675796 4.4022675 2.7244046
v -1.234611E-5 4.3916287 2.749253
v -1.2347227E-5 3.3253887 -2.7975829
v 5.6766586 3.3361812 -2.8223784
v -1.2349484E-5 -0.9511369 -6.5132895
v 5.683339 -0.94039214 -6.5381064
v -1.2348441E-5 4.388656 6.4157605
v 2.6646256 4.393838 5.931209
v 5.6759734 4.401282 3.9989164
v 5.683339 -0.94039214 -6.5381064
v -1.2349449E-5 -4.3910356 -6.5162144
v 5.6891303 -4.380312 -6.541031
v 2.679637 -4.396694 5.9238343
v 2.6646256 4.393838 5.931209
v 5.6759734 4.401282 3.9989164
v 5.69068 -4.3894777 3.9914777
v -1.2348401E-5 -4.402257 6.4123487
v -1.2348476E-5 4.388656 6.418664
v 2.6646256 4.393838 5.931209
v 5.6891303 -4.380312 -6.541031
v 5.69068 -4.3894777 3.9914777
v 5.6766586 3.3361812 -2.8223784
v 5.683339 -0.94039214 -6.5381064
v 5.6759734 4.401282 3.9989164
v 5.675796 4.4022675 2.7244046
vn 0.7094057 -0.6696966 -0.21965863
vn 0.70940876 -0.6696937 -0.219658
vn 0.7094057 -0.6696966 -0.21965863
vn 0.7094027 -0.66969967 -0.21965927
vn 0.7094109 0.68196076 0.1779487
vn 0.70942134 0.6819508 0.17794493
vn 0.70942134 0.6819508 0.17794493
vn 0.7094004 0.6819707 0.17795245
vn -0.7093819 -0.6697189 -0.21966799
vn -0.70938903 -0.6697118 -0.21966647
vn -0.7093819 -0.6697189 -0.21966799
vn -0.7093747 -0.6697259 -0.21966948
vn -0.7093872 0.6819843 0.17795284
vn -0.7093867 0.6819847 0.17795298
vn -0.7093867 0.6819847 0.17795298
vn -0.7093876 0.6819839 0.17795269
vn 6.8481354E-4 0.89005095 -0.45586058
vn -0.0 0.9955336 -0.094408
vn 0.0022043444 0.997157 -0.075320676
vn 0.0038278252 0.8664822 -0.4991933
vn 0.004544181 0.65586317 -0.7548662
vn -9.6738467E-4 0.41924044 -0.9078747
vn -0.0 0.9999999 5.928559E-4
vn 0.0018962681 0.9999981 5.804736E-4
vn 0.0019756006 0.99999774 7.7352225E-4
vn -0.0 8.465319E-4 -0.99999964
vn 0.0043636975 8.4287225E-4 -0.9999901
vn 0.0043636975 8.4287225E-4 -0.9999901
vn -0.0 0.9999999 5.928559E-4
vn -0.0 1.0 0.0
vn 0.0018962681 0.9999981 5.804736E-4
vn -0.0018962692 0.9999981 5.8046635E-4
vn -0.540047 2.161184E-4 0.8416348
vn -0.540047 2.161184E-4 0.8416348
vn -0.42702708 -3.835152E-5 0.9042389
vn -0.5401015 1.8986469E-4 0.84159976
vn -0.06086217 -6.536058E-4 0.99814594
vn -0.17935205 -5.1909947E-4 0.9837848
vn -0.17995147 -7.066776E-4 0.9836752
vn -0.99999857 0.0016863517 -1.4561822E-4
vn -0.99999857 0.0016782851 -1.5476451E-4
vn -0.99999857 0.0016812934 -1.3512142E-4
vn -0.99999857 0.0016762348 -1.2462458E-4
vn -0.99999857 0.0016702183 -1.6391078E-4
vn -0.9999987 0.0016341216 -1.582745E-4
vn -0.7094088 -0.6696931 -0.21965943
vn -0.709415 -0.6696869 -0.21965817
vn -0.7094088 -0.6696931 -0.21965943
vn -0.7094026 -0.66969925 -0.21966076
vn -0.7094146 0.6819576 0.17794584
vn -0.7094146 0.6819576 0.17794584
vn -0.70940745 0.68196446 0.17794845
vn -0.7094003 0.6819712 0.17795101
vn 0.7093863 -0.6697149 -0.21966562
vn 0.7093889 -0.6697124 -0.21966505
vn 0.7093863 -0.6697149 -0.21966562
vn 0.70938367 -0.66971755 -0.21966612
vn 0.70938665 0.68198436 0.17795444
vn 0.70938665 0.68198436 0.17795444
vn 0.70938504 0.68198586 0.177955
vn 0.70938355 0.6819874 0.17795558
vn -0.0022043418 0.997157 -0.075320676
vn -0.0 0.9955336 -0.094408
vn 6.8481354E-4 0.89005095 -0.45586058
vn -0.0041243886 0.803652 -0.59508526
vn -9.6738467E-4 0.41924044 -0.9078747
vn -0.004536115 0.65586317 -0.7548662
vn -0.0 0.9999999 5.928559E-4
vn -0.0018962692 0.9999981 5.8046635E-4
vn -0.001975643 0.99999774 7.7348173E-4
vn -0.0043636546 8.4283965E-4 -0.9999901
vn -0.0 8.465319E-4 -0.99999964
vn -0.0043636546 8.4283965E-4 -0.9999901
vn 0.36681134 -2.0824898E-4 0.93029535
vn 0.54005027 2.1612082E-4 0.8416327
vn 0.54005027 2.1612082E-4 0.8416327
vn 0.54010165 1.9140614E-4 0.84159976
vn -0.06086217 -6.536058E-4 0.99814594
vn 0.17935072 -7.067567E-4 0.9837849
vn 0.17994946 -5.179873E-4 0.9836758
vn 0.99999857 0.001685112 -1.4284375E-4
vn 0.99999857 0.0016797733 -1.5324773E-4
vn 0.99999857 0.001686468 -1.4565718E-4
vn 0.99999857 0.0016837565 -1.4003034E-4
vn 0.99999857 0.0016730786 -1.6083832E-4
vn 0.9999988 0.0015272476 -1.3806776E-4
vt 0.7496 0.9744
vt 0.8498 0.9744
vt 0.8498 0.9943
vt 0.7496 0.9943
vt 0.8498 0.9531
vt 0.8498 0.973
vt 0.7496 0.973
vt 0.7496 0.9531
vt 0.7496 0.9744
vt 0.7496 0.9943
vt 0.8498 0.9943
vt 0.8498 0.9744
vt 0.8498 0.9531
vt 0.7496 0.9531
vt 0.7496 0.973
vt 0.8498 0.973
vt 0.0818 0.2098
vt 0.0365 0.21039999
vt 0.0363 0.14069998
vt 0.0816 0.13999999
vt 0.1232 0.13959998
vt 0.1234 0.2094
vt 0.0088 0.21079999
vt 0.0123 0.17799997
vt 0.0267 0.1408
vt 0.1343 0.20929998
vt 0.1232 0.13959998
vt 0.1341 0.13950002
vt 0.0088 0.21079999
vt 0.0088 0.21079999
vt 0.0123 0.17799997
vt 0.0123 0.17799997
vt 0.0852 0.007099986
vt 0.1148 0.007099986
vt 0.1146 0.12589997
vt 0.0851 0.12580001
vt 0.1317 0.12599999
vt 0.1148 0.007099986
vt 0.1318 0.0072000027
vt 0.0342 0.021399975
vt 0.0851 0.12580001
vt 0.0063 0.12559998
vt 0.0063 0.07920003
vt 0.0852 0.007099986
vt 0.0757 0.007000029
vt 0.8498 0.9943
vt 0.8498 0.9744
vt 0.7496 0.9744
vt 0.7496 0.9943
vt 0.7496 0.973
vt 0.8498 0.973
vt 0.8498 0.9531
vt 0.7496 0.9531
vt 0.8498 0.9943
vt 0.7496 0.9943
vt 0.7496 0.9744
vt 0.8498 0.9744
vt 0.7496 0.973
vt 0.7496 0.9531
vt 0.8498 0.9531
vt 0.8498 0.973
vt 0.0363 0.14069998
vt 0.0365 0.21039999
vt 0.0818 0.2098
vt 0.0816 0.13999999
vt 0.1234 0.2094
vt 0.1232 0.13959998
vt 0.0088 0.21079999
vt 0.0123 0.17799997
vt 0.0267 0.1408
vt 0.1232 0.13959998
vt 0.1343 0.20929998
vt 0.1341 0.13950002
vt 0.1146 0.12589997
vt 0.1148 0.007099986
vt 0.0852 0.007099986
vt 0.0851 0.12580001
vt 0.1317 0.12599999
vt 0.1318 0.0072000027
vt 0.1148 0.007099986
vt 0.0063 0.12559998
vt 0.0851 0.12580001
vt 0.0342 0.021399975
vt 0.0063 0.07920003
vt 0.0852 0.007099986
vt 0.0757 0.007000029

g artillery1
s 1
usemtl artillery1
f 3/3/3 2/2/2 1/1/1 
f 1/1/1 4/4/4 3/3/3 
f 7/7/7 6/6/6 5/5/5 
f 5/5/5 8/8/8 7/7/7 
f 11/11/11 10/10/10 9/9/9 
f 9/9/9 12/12/12 11/11/11 
f 15/15/15 14/14/14 13/13/13 
f 13/13/13 16/16/16 15/15/15 
f 19/19/19 18/18/18 17/17/17 
f 17/17/17 20/20/20 19/19/19 
f 21/21/21 20/20/20 17/17/17 
f 17/17/17 22/22/22 21/21/21 
f 18/18/18 19/19/19 23/23/23 
f 23/23/23 19/19/19 24/24/24 
f 25/25/25 24/24/24 19/19/19 
f 27/27/27 22/22/22 26/26/26 
f 26/26/26 28/28/28 27/27/27 
f 31/31/31 30/30/30 29/29/29 
f 29/29/29 30/30/30 32/32/32 
f 35/35/35 34/34/34 33/33/33 
f 33/33/33 36/36/36 35/35/35 
f 38/38/38 35/35/35 37/37/37 
f 37/37/37 39/39/39 38/38/38 
f 42/42/42 41/41/41 40/40/40 
f 40/40/40 43/43/43 42/42/42 
f 40/40/40 41/41/41 44/44/44 
f 44/44/44 45/45/45 40/40/40 
f 48/48/48 47/47/47 46/46/46 
f 46/46/46 49/49/49 48/48/48 
f 52/52/52 51/51/51 50/50/50 
f 50/50/50 53/53/53 52/52/52 
f 56/56/56 55/55/55 54/54/54 
f 54/54/54 57/57/57 56/56/56 
f 60/60/60 59/59/59 58/58/58 
f 58/58/58 61/61/61 60/60/60 
f 64/64/64 63/63/63 62/62/62 
f 62/62/62 65/65/65 64/64/64 
f 66/66/66 64/64/64 65/65/65 
f 65/65/65 67/67/67 66/66/66 
f 63/63/63 68/68/68 62/62/62 
f 69/69/69 62/62/62 68/68/68 
f 70/70/70 62/62/62 69/69/69 
f 72/72/72 66/66/66 71/71/71 
f 71/71/71 73/73/73 72/72/72 
f 76/76/76 75/75/75 74/74/74 
f 74/74/74 77/77/77 76/76/76 
f 79/79/79 78/78/78 74/74/74 
f 74/74/74 80/80/80 79/79/79 
f 83/83/83 82/82/82 81/81/81 
f 81/81/81 84/84/84 83/83/83 
f 85/85/85 82/82/82 83/83/83 
f 83/83/83 86/86/86 85/85/85 

